<?xml version="1.0" encoding="utf-8"?>
<!-- Generator: Adobe Illustrator 19.2.1, SVG Export Plug-In . SVG Version: 6.00 Build 0)  -->
<svg version="1.1" id="Layer_1" xmlns="http://www.w3.org/2000/svg" xmlns:xlink="http://www.w3.org/1999/xlink" x="0px" y="0px"
	 viewBox="0 0 595.3 841.9" style="enable-background:new 0 0 595.3 841.9;" xml:space="preserve">
<style type="text/css">
	.st0{fill:none;stroke:#403E56;stroke-width:4;stroke-miterlimit:10;}
	.st1{fill:#57B793;}
	.st2{opacity:0.1;fill:#010101;enable-background:new    ;}
</style>
<path class="st0" d="M272.3,539.8c3.8-9.6-0.5-21.3-5.4-29.9c-4.9-8.6-10.8-17.4-10.6-28.3c0.2-15.6,12.1-24.9,21.7-33.2
	c7.1-6.2,13.6-13.5,19.4-21.7c2.5-3.2,4.5-7,6-11.1c2-6.1,1.9-13.1,1.8-19.8c-0.4-22.3-1.2-44.6-2.4-66.9"/>
<path class="st1" d="M321,327.7c-0.3-8.3-3.6-15.8-8.8-20l-3.9,10.8l0.1-13.1c-9.3-3.9-19,3.5-21.8,16.3c-0.6,2.7-0.8,5.4-0.7,8.2
	c0.5,13.4,8.7,23.8,18.3,23.2C313.9,352.6,321.4,341.2,321,327.7L321,327.7L321,327.7z"/>
<path class="st1" d="M289.7,492.9c-4.4,12-15,16.7-23.6,10.5c-8.6-6.2-12-20.8-7.6-32.8c4.4-12,15-16.7,23.6-10.5
	c3.9,2.8,6.9,7.5,8.4,13.1l-11,12.4l12.1-3.9C291.6,485.6,290.9,489.4,289.7,492.9z"/>
<path class="st1" d="M281,445.4c-9.7,0.6-17.9-9.7-18.3-23.1c0,0,0-0.1,0-0.1c-0.1-3.8,0.4-7.6,1.5-11.1c2.1-6.6,6.2-11.6,11.3-13.5
	l-0.1,10.1l4-11l0,0c9.7-0.6,17.9,9.8,18.4,23.2C298.1,433.4,290.6,444.8,281,445.4L281,445.4z"/>
<path class="st1" d="M323.6,405.9c-9.7,0.6-17.9-9.8-18.3-23.2c-0.5-13.4,7-24.9,16.7-25.5c3.3-0.2,6.5,0.8,9.4,3.1l-3.1,11.8
	l6.4-8.5c3.4,4.3,5.5,10.4,5.7,16.8c0.1,2.3-0.1,4.5-0.5,6.7C338.1,397.8,331.4,405.5,323.6,405.9z"/>
<path class="st2" d="M318.6,334.1c-4.1,0.6-8,2.4-12.1,2.7c-4.1,0.3-8.5-1-11.1-5.4c-1.4-2.4-2.1-5.4-3.3-7.9
	c-1.1-2.4-2.6-4.4-4.4-5.8c-4.2,12.1-0.5,26.7,8.2,32.5c8.7,5.8,19.2,0.7,23.3-11.5c0.5-1.5,0.9-3.1,1.2-4.8
	C319.9,334,319.2,334.1,318.6,334.1z"/>
<path class="st2" d="M323.6,405.9c-9.7,0.7-17.9-9.7-18.4-23.1c-0.1-4,0.4-8.1,1.7-11.7c1.4,1.3,2.6,3,3.5,4.9
	c1.3,2.6,2,5.7,3.5,8.1c2.7,4.5,7.4,5.9,11.6,5.7c4.2-0.3,8.3-1.9,12.5-2.5c0.6,0,1.2-0.1,1.8-0.2
	C338,397.8,331.4,405.4,323.6,405.9z"/>
<path class="st2" d="M281,445.4c-9.7,0.6-17.9-9.7-18.3-23.1c0,0,0-0.1,0-0.1c-0.1-3.8,0.4-7.6,1.5-11.1c1.5,1.3,2.7,3,3.8,5
	c1.4,2.7,2.2,5.8,3.8,8.2c3,4.6,7.9,6.2,12.4,6.1s8.5-1.6,12.9-2.1C294.8,438.1,288.4,444.9,281,445.4z"/>
<path class="st2" d="M289.7,492.9c-4,12.3-14.4,17.8-23.2,12.2c-8.8-5.5-12.8-20-8.8-32.2c1.4,1.3,2.7,2.9,3.9,4.8
	c1.7,2.8,2.8,6,4.7,8.7c3.6,4.9,9.4,7,14.5,7.1C283.7,493.5,286.7,493.3,289.7,492.9z"/>
</svg>
