<?xml version="1.0" encoding="utf-8"?>
<!-- Generator: Adobe Illustrator 19.2.1, SVG Export Plug-In . SVG Version: 6.00 Build 0)  -->
<svg version="1.1" id="Layer_1" xmlns="http://www.w3.org/2000/svg" xmlns:xlink="http://www.w3.org/1999/xlink" x="0px" y="0px"
	 viewBox="0 0 954.5 887.8" style="enable-background:new 0 0 954.5 887.8;" xml:space="preserve">
<style type="text/css">
	.st0{fill:none;stroke:#403E56;stroke-width:4;stroke-miterlimit:10;}
	.st1{fill:#57B793;}
	.st2{opacity:0.1;fill:#010101;enable-background:new    ;}
</style>
<g>
	<path class="st0" d="M523.9,806.8c-11.4-24.6,1.6-54.7,16.4-76.6c14.8-21.9,32.9-44.7,32.6-72.7c-0.6-40.1-37.1-63.8-66.3-85.1
		c-21.7-15.8-41.6-34.5-59.5-55.8c-7.2-8.5-14.1-17.7-18.3-28.6c-6-15.7-5.9-33.5-5.5-50.7c1.3-57.3,3.7-114.6,7.3-171.7"/>
	<path class="st1" d="M375,262.5c0.9-21.3,11-40.6,26.8-51.2l12,27.7l-0.4-33.6c28.4-9.8,58.3,9.2,66.7,42.4
		c8.4,33.2-7.9,68-36.3,77.8c-28.4,9.8-58.3-9.2-66.7-42.4C375.5,276.5,374.8,269.6,375,262.5L375,262.5z"/>
	<path class="st1" d="M470.8,686.2c13.5,30.7,45.9,42.9,72.2,27.1c17.1-10.2,28.2-30.3,29.1-52.7c0.4-8.7-0.8-17.3-3.5-25.4
		c-10.7-32.3-41.7-48.3-69.4-35.9c-14.3,6.5-25.6,19.8-31,36.6l33.5,31.8l-36.9-10C464.8,667.6,466.9,677.4,470.8,686.2z"/>
	<path class="st1" d="M497.3,564.7c29.6,1.6,54.7-25.1,56.1-59.7c1.1-29.1-15-55.2-39.1-63.1l0.3,25.8l-12.1-28h-0.1
		c-29.6-1.6-54.7,25.1-56.1,59.6C444.8,533.8,467.7,563.1,497.3,564.7L497.3,564.7L497.3,564.7z"/>
	<path class="st1" d="M367,463.6c29.6,1.7,54.8-25,56.2-59.5c1.4-34.5-21.4-63.9-51-65.6c-10.1-0.6-20.1,2.2-28.9,8l9.4,30.3
		l-19.4-21.9c-10.5,11.1-16.8,26.7-17.4,43.2c-0.2,5.8,0.2,11.6,1.4,17.2C322.7,442.6,343,462.3,367,463.6z"/>
	<path class="st2" d="M382.3,279.2c12.4,1.6,24.4,6.1,36.9,7c12.4,0.9,26.1-2.6,33.9-13.8c4.2-6.1,6.4-13.8,9.9-20.4
		c3.4-6.2,8-11.3,13.5-14.8c13.3,30.9,2.6,68.5-23.9,84.1c-26.5,15.5-58.8,3.1-72.1-27.8c-2-4.7-3.5-9.6-4.5-14.7
		C378.2,278.8,380.3,279,382.3,279.2z"/>
	<path class="st2" d="M367,463.6c29.6,1.6,54.8-25.1,56.1-59.7c0.4-10.2-1.3-20.4-5.1-29.6c-4.3,3.3-7.9,7.6-10.8,12.6
		c-3.8,6.7-6.1,14.5-10.6,20.7c-8.4,11.5-22.6,15.2-35.6,14.5c-13-0.7-25.5-5-38.4-6.4c-1.8-0.2-3.6-0.3-5.4-0.4
		C322.7,442.6,343,462.3,367,463.6z"/>
	<path class="st2" d="M497.3,564.7c29.6,1.6,54.7-25.1,56.1-59.6c0.4-9.8-1.2-19.6-4.6-28.5c-4.4,3.4-8.3,7.8-11.3,12.8
		c-4.2,6.9-6.8,14.8-11.7,21.1c-9.1,11.8-24.3,15.9-38,15.5c-13.3-0.3-26.1-4.1-39.3-5.3C455.2,545.9,474.7,563.5,497.3,564.7z"/>
	<path class="st2" d="M470.8,686.2c13.5,30.7,45.9,42.9,72.2,27.1c17.1-10.2,28.2-30.3,29.1-52.7c0.4-8.7-0.8-17.3-3.5-25.4
		c-4.4,3.4-8.4,7.5-11.8,12.2c-5.1,7.3-8.5,15.5-14.4,22.2c-11,12.6-28.7,17.7-44.5,18.3C488.9,688,479.8,687.5,470.8,686.2z"/>
</g>
</svg>
