<?xml version="1.0" encoding="utf-8"?>
<!-- Generator: Adobe Illustrator 19.2.1, SVG Export Plug-In . SVG Version: 6.00 Build 0)  -->
<svg version="1.1" id="Layer_1" xmlns="http://www.w3.org/2000/svg" xmlns:xlink="http://www.w3.org/1999/xlink" x="0px" y="0px"
	 viewBox="0 0 595.3 841.9" style="enable-background:new 0 0 595.3 841.9;" xml:space="preserve">
<style type="text/css">
	.st0{fill:#F3F3F3;}
</style>
<path class="st0" d="M207.3,495.4l7.5-4.6c0.7-0.5,1.4-0.9,2.1-1.4c-33-5.7-57.6-33.5-59.2-67c-0.5-11.2,1.6-22.3,6.2-32.5
	c8.7-19.3,25.4-33.8,45.8-39.5l-0.4,29.4l16.2-32c0.1,0,0.1,0,0.2,0c39.4-1.8,72.8,28.6,74.6,67.9c0,0,0,0,0,0c0.1,1.4,0,2.7,0,4
	c5.6-6.4,10.7-13.3,14.1-20.8c6.8-15.3,7-32.5,6.4-53.5c-1.1-41.6-2.9-83.5-5.2-125.3c-34.8-3.9-61.7-32.5-63.3-67.5
	c-0.1-2.2-0.1-4.3,0-6.5c0-0.5,0-1.1,0.1-1.6c0.1-2.1,0.3-4.1,0.7-6.1c0-0.3,0.1-0.7,0.2-1c0.3-1.7,0.6-3.4,1-5.1
	c0.2-0.6,0.3-1.3,0.5-1.9c0.5-1.8,1-3.6,1.7-5.4c0.2-0.6,0.5-1.2,0.7-1.7c0.5-1.3,1.1-2.6,1.6-3.9c0.3-0.7,0.6-1.3,0.9-2
	c0.1-0.2,0.2-0.3,0.2-0.5l0,0c15.5-30.7,50.8-45.9,83.8-36.2l-0.5,38.3l16-31.6c26.9,15.4,40.7,46.6,34,76.9h0.1
	c-0.1,0.5-0.3,1-0.4,1.5c-0.2,0.9-0.5,1.9-0.7,2.8c-0.3,1.2-0.7,2.4-1.1,3.5c-0.3,0.9-0.6,1.8-0.9,2.6c-0.5,1.3-1,2.5-1.6,3.7
	c-0.3,0.7-0.6,1.4-1,2.2c-0.9,1.8-1.9,3.6-3,5.4c-0.4,0.6-0.8,1.2-1.2,1.8c-0.8,1.2-1.5,2.4-2.4,3.5c-0.5,0.7-1.1,1.4-1.6,2.1
	c-0.8,1-1.6,2-2.4,2.9c-0.6,0.7-1.2,1.3-1.8,2c-0.9,0.9-1.8,1.8-2.7,2.7c-0.6,0.6-1.2,1.2-1.9,1.7c-1,0.9-2.2,1.8-3.3,2.7
	c-0.6,0.4-1.1,0.9-1.7,1.3c-1.7,1.3-3.4,2.4-5.2,3.5c-0.3,0.2-0.7,0.4-1,0.6c-1.5,0.9-3,1.7-4.6,2.5c-0.7,0.3-1.4,0.6-2.1,0.9
	c-1.3,0.6-2.6,1.1-3.9,1.6c-0.8,0.3-1.6,0.6-2.3,0.8c-1.3,0.4-2.6,0.9-4,1.2c-0.8,0.2-1.6,0.4-2.4,0.6c-1.5,0.4-3,0.6-4.5,0.9
	c-0.1,0-0.2,0-0.3,0.1c1,17.6,1.9,35.3,2.6,52.9c17.2-35.4,59.9-50.1,95.3-32.9c1.2,0.6,2.5,1.2,3.7,1.9l-12.6,34.5l25.9-24.9
	c13.9,12.7,22.2,30.4,23,49.3c0.3,6.6-0.3,13.2-1.8,19.6c-9,38.3-47.3,62.2-85.7,53.2c-19.2-4.5-35.6-16.7-45.5-33.7
	c0,1.8,0.1,3.6,0.2,5.4c0.5,18.5,1.1,41.6-8.2,62.1c-6.3,14-16.3,25.3-26.3,35.4c-6.5,6.6-13.2,13-20.1,19.2
	c-6.8,9.1-15.6,16.4-25.8,21.4c-11.3,8.7-23,16.9-35.1,24.5l-7.4,4.7c-6.8,4.2-13.8,8.5-20.6,13c1.2-0.1,2.4-0.3,3.6-0.3
	c31-1.5,59.4,17.3,70.2,46.4l-44.6,36.3l49-11.4c0,39.4-32,71.3-71.4,71.3c-10.7,0-21.2-2.4-30.8-7c1.1,1.4,2.2,2.8,3.3,4.1
	c2.2,2.7,4.4,5.4,6.5,8.1c29,36.7,37.1,71.6,22.7,98.2l-17.5-9.4c14-25.9-7-59-20.8-76.5c-2.1-2.6-4.2-5.3-6.4-8
	c-18.5-23-39.5-49.1-39-81.1C122.8,547.8,169.7,518.8,207.3,495.4z"/>
</svg>
