<?xml version="1.0" encoding="utf-8"?>
<!-- Generator: Adobe Illustrator 19.2.1, SVG Export Plug-In . SVG Version: 6.00 Build 0)  -->
<svg version="1.1" id="Layer_1" xmlns="http://www.w3.org/2000/svg" xmlns:xlink="http://www.w3.org/1999/xlink" x="0px" y="0px"
	 viewBox="0 0 954.5 887.8" style="enable-background:new 0 0 954.5 887.8;" xml:space="preserve">
<style type="text/css">
	.st0{fill:#6466AF;}
	.st1{opacity:0.1;fill:#010101;enable-background:new    ;}
	.st2{opacity:5.000000e-002;fill:#010101;enable-background:new    ;}
	.st3{fill:#403E56;}
</style>
<g>
	<polygon class="st0" points="512.8,786.4 348.4,822.8 344.7,822.3 200.2,806.6 200.2,608.7 377.1,576.4 505.3,592.5 505.4,593.4 
		505.4,593.8 	"/>
	<polygon class="st1" points="512.8,786.4 348.4,822.8 344.7,822.3 344.7,619.5 505.4,593.4 	"/>
	<polygon class="st2" points="505.4,593.8 505.3,593.9 344.7,619.5 200.2,608.7 377.1,576.4 505.3,592.5 505.4,593.4 	"/>
	<polygon class="st3" points="693.4,794.5 529,830.8 525.3,830.4 380.8,814.7 380.8,616.8 557.6,584.5 685.9,600.6 686,601.5 
		686,601.9 	"/>
	<polygon class="st1" points="693.4,794.5 529,830.8 525.3,830.4 525.3,627.5 686,601.5 	"/>
	<polygon class="st2" points="686,601.9 685.9,602 525.3,627.5 380.8,616.8 557.6,584.5 685.9,600.6 686,601.5 	"/>
	<polygon class="st3" points="580.1,600.6 415.7,637 411.9,636.6 267.5,620.8 267.5,422.9 444.3,390.6 572.6,406.7 572.6,407.6 
		572.6,408 	"/>
	<polygon class="st1" points="580.1,600.6 415.7,637 411.9,636.6 411.9,433.7 572.6,407.6 	"/>
	<polygon class="st2" points="572.6,408 572.6,408.1 411.9,433.7 267.5,422.9 444.3,390.6 572.6,406.7 572.6,407.6 	"/>
	<polygon class="st3" points="673.5,608.9 587.7,627.9 585.7,627.7 510.3,619.4 510.3,516.2 602.6,499.3 669.6,507.7 669.6,508.2 
		669.6,508.4 	"/>
	<polygon class="st1" points="673.5,608.9 587.7,627.9 585.7,627.7 585.7,521.8 669.6,508.2 	"/>
	<polygon class="st2" points="669.6,508.4 669.6,508.4 585.7,521.8 510.3,516.2 602.6,499.3 669.6,507.7 669.6,508.2 	"/>
	<polygon class="st3" points="443.1,408.3 357.3,427.3 355.3,427.1 279.9,418.8 279.9,315.5 372.2,298.7 439.2,307.1 439.2,307.6 
		439.2,307.8 	"/>
	<polygon class="st1" points="443.1,408.3 357.3,427.3 355.3,427.1 355.3,321.2 439.2,307.6 	"/>
	<polygon class="st2" points="439.2,307.8 439.2,307.8 355.3,321.2 279.9,315.5 372.2,298.7 439.2,307.1 439.2,307.6 	"/>
	<polygon class="st0" points="593.8,404.3 508,423.2 506,423 430.6,414.8 430.6,311.5 522.9,294.6 589.9,303.1 589.9,303.5 
		589.9,303.8 	"/>
	<polygon class="st1" points="593.8,404.3 508,423.2 506,423 506,317.1 589.9,303.5 	"/>
	<polygon class="st2" points="589.9,303.8 589.9,303.8 506,317.1 430.6,311.5 522.9,294.6 589.9,303.1 589.9,303.5 	"/>
	<polygon class="st3" points="638.6,300.6 552.8,319.6 550.8,319.4 475.4,311.1 475.4,207.8 567.7,191 634.7,199.4 634.7,199.9 
		634.7,200.1 	"/>
	<polygon class="st1" points="638.6,300.6 552.8,319.6 550.8,319.4 550.8,213.5 634.7,199.9 	"/>
	<polygon class="st2" points="634.7,200.1 634.7,200.1 550.8,213.5 475.4,207.8 567.7,191 634.7,199.4 634.7,199.9 	"/>
	<polygon class="st0" points="480.4,304.6 394.6,323.6 392.7,323.4 317.3,315.2 317.3,211.9 409.6,195 476.5,203.5 476.6,203.9 
		476.6,204.1 	"/>
	<polygon class="st1" points="480.4,304.6 394.6,323.6 392.7,323.4 392.7,217.5 476.6,203.9 	"/>
	<polygon class="st2" points="476.6,204.1 476.5,204.2 392.7,217.5 317.3,211.9 409.6,195 476.5,203.5 476.6,203.9 	"/>
	<polygon class="st3" points="525.3,202.3 439.5,221.3 437.5,221.1 362.1,212.9 362.1,109.6 454.4,92.7 521.4,101.1 521.4,101.6 
		521.4,101.8 	"/>
	<polygon class="st1" points="525.3,202.3 439.5,221.3 437.5,221.1 437.5,115.2 521.4,101.6 	"/>
	<polygon class="st2" points="521.4,101.8 521.4,101.8 437.5,115.2 362.1,109.6 454.4,92.7 521.4,101.1 521.4,101.6 	"/>
</g>
</svg>
