<svg id="Layer_1" data-name="Layer 1" xmlns="http://www.w3.org/2000/svg" viewBox="0 0 183.07 234.06"><defs><style>.cls-1{fill:none;}.cls-2,.cls-3{fill:#7cd2ee;}.cls-2{opacity:0.75;isolation:isolate;}.cls-4{fill:#cddc3e;}.cls-5{fill:#606161;}</style></defs><path class="cls-1" d="M385.3,212.7c3.9-6.1,3.2-13.5-1.6-16.7a9.31,9.31,0,0,0-4.9-1.4h0c-4,0-8.3,2.5-11.1,6.7-3.4,5.3-3.4,11.5-.2,15.2A58,58,0,0,1,385.3,212.7Z" transform="translate(-308.37 -189.94)"/><path class="cls-2" d="M491.3,376.7c-2.2,23.1-35.5,41.6-76.4,41.9s-74.4-17.8-77-40.9a24.37,24.37,0,0,0-.1,2.7c.2,24.3,34.7,43.8,77.1,43.6s76.7-20.2,76.5-44.6A12.21,12.21,0,0,0,491.3,376.7Z" transform="translate(-308.37 -189.94)"/><path class="cls-3" d="M414.9,418.6c40.9-.3,74.2-18.8,76.4-41.9a24.37,24.37,0,0,0,.1-2.7c-.2-24.3-34.7-43.8-77.1-43.6a132,132,0,0,0-26.5,2.9c-11.2,8.8-23.1,13.9-34,14.5-10.1,7.5-16.2,17-16.1,27.2a24.52,24.52,0,0,0,.2,2.7C340.5,400.8,374,418.9,414.9,418.6Zm-.6-82.8c37-.2,67.1,16.8,67.3,38s-29.7,38.6-66.7,38.9-67.1-16.8-67.3-38S377.3,336.1,414.3,335.8Z" transform="translate(-308.37 -189.94)"/><ellipse class="cls-4" cx="414.61" cy="374.21" rx="67" ry="38.4" transform="translate(-310.88 -187.14) rotate(-0.39)"/><path class="cls-3" d="M336.1,259.3c10.7-16.5,24.6-28.7,38.5-35h-.4a14.42,14.42,0,0,1-7.5-2.1,14.1,14.1,0,0,1-3.7-3.6c-13.9,6.6-27.5,18.6-37.8,34.5-22,33.8-23.8,67,2.8,87.8,6.2,4.9,13.7,7.1,21.8,7.1a30,30,0,0,1-15.2-4.8C314,329.6,314.6,292.1,336.1,259.3Z" transform="translate(-308.37 -189.94)"/><path class="cls-3" d="M384.1,220.9c10.4-2.7,20.2-1.8,28.1,3.3a29,29,0,0,1,7.6,7.2,37.1,37.1,0,0,0-29-18.6,21.48,21.48,0,0,1-1.4,2.6A23.2,23.2,0,0,1,384.1,220.9Z" transform="translate(-308.37 -189.94)"/><path class="cls-3" d="M369.3,218.2c4.8,3.1,12,.7,16-5.3a.1.1,0,0,1,.1-.1,55.44,55.44,0,0,0-17.8,3.9A8.62,8.62,0,0,0,369.3,218.2Z" transform="translate(-308.37 -189.94)"/><path class="cls-3" d="M396.6,325.5a108.73,108.73,0,0,0,14.5-17.6,98,98,0,0,0,11.6-24.3,108.72,108.72,0,0,1-12,24.5A106,106,0,0,1,396.6,325.5Z" transform="translate(-308.37 -189.94)"/><path class="cls-4" d="M396.6,325.5A112.85,112.85,0,0,0,410.8,308a110.94,110.94,0,0,0,12-24.5c6.9-20.5,6-40-2.9-52.1a29,29,0,0,0-7.6-7.2c-7.9-5.1-17.7-6-28.1-3.3a17.5,17.5,0,0,1-9.6,3.4c-13.8,6.3-27.8,18.5-38.5,34.9-21.5,32.9-22.1,70.4-1.5,83.9a30.66,30.66,0,0,0,15.2,4.8c1.4.1,2.7,0,4.1,0,10.8-.6,22.8-5.7,34-14.5C390.8,331,393.7,328.4,396.6,325.5ZM345.3,330c-16.7-10.9-16.7-40.3-.1-65.7s43.5-37.3,60.1-26.5,16.6,40.2.1,65.7S361.9,340.8,345.3,330Z" transform="translate(-308.37 -189.94)"/><path class="cls-4" d="M366.7,222.2a13.1,13.1,0,0,0,7.5,2.1h.4a17.77,17.77,0,0,0,9.6-3.4,20.63,20.63,0,0,0,5.2-5.4,13,13,0,0,0,1.4-2.6c3.6-7.8,1.9-16.7-4.4-20.8-7-4.6-17.2-1.6-22.6,6.7-4.3,6.6-4.3,14.5-.7,19.8A12.35,12.35,0,0,0,366.7,222.2Zm1-20.8c2.8-4.3,7.1-6.7,11.1-6.7h0a8.71,8.71,0,0,1,4.9,1.4c4.8,3.1,5.5,10.6,1.6,16.7a.1.1,0,0,1-.1.1c-4,6.1-11.1,8.5-16,5.3a6.9,6.9,0,0,1-1.8-1.6C364.4,213,364.3,206.7,367.7,201.4Z" transform="translate(-308.37 -189.94)"/><path class="cls-5" d="M379.9,247.7c3.4,0,3.4-5.3,0-5.3S376.5,247.8,379.9,247.7Z" transform="translate(-308.37 -189.94)"/><path class="cls-5" d="M373.6,322.1c-3.4,0-3.4,5.3,0,5.3S377,322.1,373.6,322.1Z" transform="translate(-308.37 -189.94)"/><path class="cls-5" d="M409.8,282.9c3.4,0,3.4-5.3,0-5.3S406.3,282.9,409.8,282.9Z" transform="translate(-308.37 -189.94)"/><path class="cls-5" d="M342,285.9c-3.4,0-3.4,5.3,0,5.3S345.4,285.9,342,285.9Z" transform="translate(-308.37 -189.94)"/></svg>