<?xml version="1.0" encoding="utf-8"?>
<!-- Generator: Adobe Illustrator 22.0.1, SVG Export Plug-In . SVG Version: 6.00 Build 0)  -->
<svg version="1.1" id="Layer_1" xmlns="http://www.w3.org/2000/svg" xmlns:xlink="http://www.w3.org/1999/xlink" x="0px" y="0px"
	 viewBox="0 0 792 612" style="enable-background:new 0 0 792 612;" xml:space="preserve">
<style type="text/css">
	.st0{opacity:0.32;fill:url(#SVGID_1_);enable-background:new    ;}
	.st1{fill:#7DD2ED;}
	.st2{opacity:0.8;fill:#2EC4EF;enable-background:new    ;}
	.st3{fill:#2E783C;}
	.st4{fill:#60AD45;}
</style>
<linearGradient id="SVGID_1_" gradientUnits="userSpaceOnUse" x1="343.4826" y1="-88.3498" x2="409.7505" y2="-32.9155" gradientTransform="matrix(1 0 0 -1 0 304)">
	<stop  offset="0" style="stop-color:#020202;stop-opacity:0"/>
	<stop  offset="0.99" style="stop-color:#096A37"/>
</linearGradient>
<polyline class="st0" points="456.1,334.4 342.7,398.3 313.1,381.6 424.1,320 "/>
<polyline class="st1" points="412,302.5 412,329.7 456.1,329.7 456.1,302.5 "/>
<ellipse class="st1" cx="433.9" cy="330.9" rx="22.2" ry="10.9"/>
<ellipse class="st2" cx="433.9" cy="302.5" rx="22.2" ry="10.9"/>
<path class="st3" d="M458.4,238.9c-4.7-1.9-11.3-8.2-16.8-8.2c-1.9,5.5-3.1,11.3-3.5,16.8c-1.2,9.4-1.2,18.7-0.8,28.1
	c0.4,1.9,0.4,4.3,0.8,6.2c0,0.8,0.4,1.2,0.8,1.9c0,7,0,14.4,0,21.8c0,0.4,0.4,0.8,0.8,0.8c0.4,0,0.8-0.4,0.8-0.8c0-7,0-14,0-20.7
	c2.3-0.8,4.3-1.9,6.2-3.1c4.3-2.7,7.4-6.6,9-11.3c3.5-9.7,1.6-21,4.7-30.8C459.6,239.3,458.8,239.3,458.4,238.9z"/>
<path class="st4" d="M449.1,223c-2.7,1.6-4.7,3.9-6.2,6.2c-0.4,0.8-0.8,1.6-1.2,1.9l-0.4,0.4l0,0c-0.4,1.2-0.8,2.3-1.2,3.5
	c0.8-0.8,1.6-1.6,2.3-1.9c1.2-0.8,2.3-0.8,3.9-0.4c1.2,0.4,2.3,1.2,3.5,1.9c1.6,1.2,3.1,1.9,4.7,3.1c7.4,4.7,17.1,5.1,22.6-1.6
	c0-0.4,0.4-0.8,0.4-0.8C478.3,230.4,465.4,213.6,449.1,223z"/>
<path class="st3" d="M400,248.7c-6.6,3.5-10.5,10.1-9.7,17.5c0.8,13.2,22.2,0.4,27.7-10.5c5.5-11.3,6.6,4.7,6.6,4.7"/>
<path class="st4" d="M419.4,244.4c-3.9,0-8.2,0.4-12.1,1.6c-2.7,0.8-5.1,1.6-7.4,3.1c1.6,1.2,2.7,1.6,4.3,2.3c2.7,0.8,5.1,2.7,7,5.1
	c0.4,0.8,0.8,1.6,0.8,1.9c1.6,4.3,0.4,9.4,1.9,13.6c1.9,4.3,5.5,8.2,10.5,8.2c5.8,0.4,8.6-5.5,9.7-10.5c1.2-5.1,2.7-12.1,1.2-17.1
	C433.1,246.7,424.9,244.4,419.4,244.4z"/>
<path class="st3" d="M427.2,264.7c-2.7-8.2-7.8-16-16-19.5h-0.4l-0.4,0.4l-1.6,0.4c9,3.5,14.8,12.5,17.1,21.8
	c3.1,11.7,1.9,24.5,1.9,36.6c0,0.4,0.4,0.8,0.8,0.8c0.4,0,0.8-0.4,0.8-0.8C430,290.8,431.1,277.1,427.2,264.7z"/>
</svg>
