<?xml version="1.0" encoding="utf-8"?>
<!-- Generator: Adobe Illustrator 19.2.1, SVG Export Plug-In . SVG Version: 6.00 Build 0)  -->
<svg version="1.1" id="Layer_1" xmlns="http://www.w3.org/2000/svg" xmlns:xlink="http://www.w3.org/1999/xlink" x="0px" y="0px"
	 viewBox="0 0 595.3 841.9" style="enable-background:new 0 0 595.3 841.9;" xml:space="preserve">
<style type="text/css">
	.st0{fill:#CEA4AB;}
	.st1{fill:#615E83;}
	.st2{fill:#545171;}
	.st3{fill:#F9C0C6;}
	.st4{fill:#403E56;}
</style>
<g>
	<path class="st0" d="M290.2,193.9c-0.7,6.5-5.7,11.7-7.5,18c-2.8,9.5,2,19.6,8.6,27c10.7,11.9,25.7,19,41.6,19.7
		c2.3,0.2,4.7-0.1,6.9-0.8c2-0.8,3.8-2,5.2-3.6c4.9-5,7.6-11.8,8.6-18.7s0.7-13.9,0.2-20.9c0-1.4-0.3-2.9-0.8-4.2
		c-0.7-1.3-1.6-2.4-2.7-3.3c-3.5-3.3-7.5-6.1-11.7-8.5c-1.8-1-3.7-2-4.9-3.7c-0.8-1.4-1.3-2.9-1.5-4.5l-1.3-6.6
		c-0.2-1.9-0.9-3.7-1.9-5.3c-2.3-3.1-6.6-3.5-10.4-3.6l-14-0.6c-4.3-0.2-10.1-1.4-14.3-0.6c-4,0.8-2.7,4.4-1.9,7.8
		C289.5,185.6,290.1,189.7,290.2,193.9z"/>
	<path class="st1" d="M379.1,486.7l-5.9,65.1c-1.5,17.1-3.1,34.2-6.2,51.1c-1,5.8-2.3,11.6-3.7,17.3c-4.1,15.9-10,31.5-11.8,47.8
		c-0.1,0.5-0.1,1-0.2,1.4c-0.4,3.6-0.7,7.2-2,10.6c-1,2.5-2.4,4.8-3.4,7.2c-2,4.9-2.3,10.4-2.6,15.7c-7.2-4.1-15.1-6.8-23.3-8
		c-4-0.6-8.3-1-11-4c-3-3.3-2.7-8.3-2.2-12.6c1.6-13.6,3.1-27.2,4.7-40.8c0.5-5.8,1.5-11.6,3-17.3c0.5-1.9,1.2-3.8,1.8-5.6
		c0.9-2.6,1.8-5.1,2.5-7.8c1-4.2,1.6-8.5,2-12.8c1.6-13.7,3.5-27.3,5.3-41l0.1-0.7c2.5-20.7,4.5-41.5,3.9-62.4
		c-0.1-3.1-0.2-6.2-0.4-9.3c-0.3-4.5-0.7-6.9,3-9.7c4.1-3.1,9.5-5.3,14.2-7.3c2.5-1.1,30.4-11,31-8.8c1.3,4.6,2,9.4,2,14.2
		C380,474.9,379.7,480.8,379.1,486.7z"/>
	<path class="st1" d="M266.2,457.4c0.4,13.3,2.5,26.4,4.7,39.5l4.4,27c2.4,14.8,4.9,29.9,11.9,43.1c5.2,9.9,12.8,18.4,19.6,27.3
		c16.8,21.9,29.4,46.6,45.3,69.1c4.6,6.5,11.2,13.6,19.1,12.3c5.2-0.9,8.9-5.2,13-8.5c4.8-3.9,10.6-6.8,14.4-11.7s4.5-13.1-0.6-16.6
		c-1.8-1.2-3.9-1.6-5.9-2.4c-7.9-3-13.1-10.8-16.3-18.6s-5.3-16.3-9.6-23.5c-9.5-15.8-28.8-24.2-37-40.7c-4.6-9.3-5-20-5.3-30.3
		l-0.9-26.3c-0.1-2.9-0.2-5.9,1-8.5c3.1-7,12.5-7.7,20.1-8.5c8.6-1,17-3.6,24.7-7.8c4.4-2.4,8.7-5.4,11-9.8c2.1-4,2.4-8.7,2.7-13.3
		l2.6-47.7c0.2-4.1,0.4-8.4-1-12.2c-3.6-9.7-15.8-12.8-26.1-12.4c-19.2,0.9-36.9,9.1-55,14.7c-4.5,1.4-9,2.6-13.6,3.5
		c-4,0.8-9,0.5-12.8,1.8c-6.9,2.3-6.7,17.4-7.7,23.6C266.8,432.8,265.9,445.1,266.2,457.4z"/>
	<path class="st2" d="M368.6,677.8c1.7,1.7,2.2,4.2,2.7,6.6c2.4,13.1,3.7,26.4,3.8,39.7c-0.1,1.2,0.1,2.5,0.7,3.6
		c0.5,0.7,1.1,1.2,1.9,1.5c4.9,2.3,10.6-0.9,14.6-4.5c7.5-6.6,13.9-15.5,14.4-25.5c0.1-2.6-0.2-5.2,0.3-7.7
		c0.7-3.8,2.9-7.1,4.8-10.4c3.3-5.6,6-11.6,8-17.8c0.7-2.3,1.2-5.3-0.6-6.9c-0.6-0.5-1.4-0.9-2.2-1.1l-22.1-8.2
		c-1.9-0.7-6.7,11.5-7.4,12.9c-1.8,3.3-3.7,5.1-7.4,5.9s-8.3-0.3-11.8,1.5C362.2,670.4,365.2,674.4,368.6,677.8z"/>
	<path class="st2" d="M334.5,685.3c-0.4-0.8-1-1.5-1.7-2.1c-1-0.7-2.2-1-3.4-1.2c-4.2-0.7-9.2-1.2-12.1,1.9c-2.7,2.9-2.3,7.7-4.5,11
		c-0.7,1-1.7,1.9-2.3,3c-0.8,1.7-1.1,3.5-1,5.4c-0.1,5.1-0.2,10.2,0.1,15.3c0.3,4.3,1,8.7,3.7,12.1c4.3,5.4,12,6.1,18.8,6.5l5.5,0.3
		c1.5,0.2,3.1,0,4.5-0.4c1.8-0.8,3.3-2.4,3.9-4.3c2.9-7.2-1.7-14.9-4.5-22.1C338.4,702.3,339,693.1,334.5,685.3z"/>
	<circle class="st3" cx="305.3" cy="160.1" r="31.5"/>
	<path class="st4" d="M312.7,229c-2.2-6.3-8.2-10.4-14.8-10.2c-0.9,0.2-1.9,0.1-2.7-0.4c-0.5-0.4-0.9-0.8-1.1-1.4
		c-1.9-3.4-3.4-7.1-4.6-10.9c-0.5-1.7-1.2-3.6-2.9-4.1c-1.4-0.4-2.8,0.5-3.7,1.6c-0.8,1.1-1.7,2.2-2.6,3.3c-4,3.5-11,0.3-15.2,3.6
		c-0.7,0.5-1.3,1.2-2,1.7c-0.7,0.4-1.5,0.8-2.3,1c-8.1,2.6-16.1,5.8-23.9,9.3c2.8,16.8,5.7,34,12.2,49.8c3.1,7.5,6.7,14.9,9.2,22.6
		c5.5,17.1,5.8,35.5,5.8,53.5c0,12.3,0,24.9-4,36.6c-0.9,2.6-2,5.3-2.3,8s0.6,5.8,2.8,7.5c1.3,0.9,2.8,1.4,4.3,1.5
		c6.9,1,13.9-0.8,20.7-2.4c18.2-4.2,36.8-6.6,55.4-9l31.1-4c2.2-0.2,4.4-0.7,6.4-1.7c5.7-3.1,6.2-11.7,2.7-17.1
		c-1.7-2.6-4.1-4.8-5.5-7.5s-1.5-6.6,0.9-8.5c5-3.9,3.5-11.1,3.7-17.5c0.7-17.7,0.6-35.3-0.3-53c-0.3-3.7-0.3-7.3-0.2-11
		c0.3-6.2,1.9-12.3,3.4-18.4l9.5-37.2c-2.5-3.9-7.2-6.4-11.7-7.5s-9.1-1.5-13.5-2.8c-9-2.8-17.1-9.9-26.5-9.2
		c-0.7,0-1.4,0.2-2.1,0.5c-2.1,1.2-1.8,4.3-1.9,6.7c-0.3,5.4-4.3,9.9-8.7,13.1s-9.4,5.5-13.4,9.1C313.6,225.6,312.8,227.2,312.7,229
		z"/>
	<path class="st3" d="M187.9,264.3c-2.1,1.4-4.3,2.5-6.6,3.4c-2.2,0.9-4.5,1.6-6.3,3.1c-0.9,0.8-1.6,1.7-2.2,2.7
		c-3.3,5.8-1.2,13.2,4.6,16.5c2,1.1,4.3,1.7,6.6,1.5c2.9-0.1,5.6-1.3,8.3-2.5l22.2-9.7c3.8-1.6,7.8-3.5,9.6-7.2
		c0.2-0.3,0.3-0.8,0.2-1.1c-0.2-0.4-0.5-0.8-0.9-1c-5-3.3-9.4-7.4-12.9-12.2c-0.9-1.2-2-4.2-3.3-4.9
		C202.3,250.3,191.6,261.9,187.9,264.3z"/>
	<path class="st3" d="M425.4,256.4l8.2,9.4c1.8,2,3.5,4,5.1,6.2c3.9,5.4,7.1,11.4,9.4,17.7c1.8,4.7,3.3,9.6,2.6,14.6
		c-0.4,2.5-1.1,5-2,7.4c-1.5,4.6-3.4,9.1-5.6,13.4c-1.8,3.3-3.9,6.4-6.2,9.4c-6.3,8.4-13.3,16.3-20.8,23.8c-2.8,2.8-4,7.3-5.2,11
		c-2.3,6.9-7.6,12.3-12.8,17.4c-1.7,1.8-3.5,3.3-5.5,4.7c-3,1.9-6.5,2.9-10,2.8c-1.5,0-3.1-0.3-4.5-0.9c-3.5-1.7-5.3-5.8-5.7-9.7
		c-0.3-3.5,0.3-7.1,1.7-10.4c4.7-10.4,16.8-14.9,25.3-22.5c5-4.5,8.8-10,12.6-15.6c2.6-3.5,4.7-7.2,6.4-11.2
		c1.9-5.1,1.2-11.1,2.8-16.3c0.7-2.2,2-4.2,2.7-6.3s1-4.7-0.4-6.6c-1-1.2-2.3-2.1-3.7-2.7c-5.5-2.8-11.5-6.3-12.6-12.4
		c-0.4-3.3,0.5-6.7,2.4-9.4c2-2.7,4.3-5.1,6.9-7.2C419,260.9,423,258.5,425.4,256.4z"/>
	<path class="st3" d="M182.6,277.4c-1.4-2.9-3.3-5.9-6.2-7.4c-2.9-1.2-6.1-1.2-9,0c-2.8,1.2-5.5,2.8-7.9,4.8l-7.1,5.2
		c-1.6,1.1-3,2.4-4.2,3.9c-1.1,1.8-1.9,3.9-2.2,6c-1,4.9-1.8,9.9-1.1,14.8c1.1,8,5.9,14.9,11.2,21c3.3,3.8,7.4,7.6,12.4,7.8
		c2.2,0.1,4.6-0.8,5.5-2.8c0.3-0.8,0.5-1.6,0.5-2.5c0.5-8.9-2.6-17.5-6.3-25.6c-1-2.2-2.1-4.5-2-6.9c0-0.4,0.1-0.8,0.3-1.2
		c0.3-0.3,0.7-0.5,1.2-0.6c5.1-1,13.8,2.9,17.4-2.7C187.4,287.5,184.2,280.7,182.6,277.4z"/>
	<path class="st4" d="M286.9,147.3c-0.1-0.7,0-1.5,0.3-2.1c0.8-1.4,2.9-1,4.5-0.6c6.4,1.6,13.2,0.1,19.8,0.5s14.1,3.7,15.4,10.2
		c4.8-3.4,8.9-7.7,12.2-12.6c1.8-2.8,3.4-5.9,3.2-9.2c-0.4-4.8-4.4-8.3-8-11.3l-11-9c-1.4-1.3-3.1-2.4-4.9-3.1
		c-2.5-0.9-5.3-0.4-8-0.4c-8,0-16.6-3.6-23.7,0c-3,1.5-5.2,4.2-7.4,6.7l-9.8,11.6c-0.7,0.7-1.3,1.7-1.6,2.7
		c-0.3,1.4,0.5,2.8,0.7,4.3c0.5,2.6-0.7,5.4,0.2,7.9c1.4,4.1,6.5,4.7,9.5,7.1c1.1,0.9,2.9,3.9,4.3,3.9
		C285.2,153.7,286.9,149.3,286.9,147.3z"/>
	<path class="st4" d="M220,233.7c-1.3,0.8-2.4,1.9-3.3,3.1c-1.2,1.8-1.4,4-2.4,5.8c-2.1,3.9-7.1,5.4-10.2,8.6c-0.5,0.4-0.9,1-1,1.7
		c0,0.9,0.3,1.7,0.8,2.4l14.9,23.5c5,0.4,9.7-2.7,14.7-2.3c1.8,0.1,3.8,0.8,5.5,0.2c1.3-0.6,2.5-1.3,3.5-2.2c3-1.9,6.9-2.1,9.4-4.6
		s2.7-6.1,2.7-9.5c0-2.9-0.3-5.8-0.9-8.7c-2.2-9-9.1-15.9-13.4-23.9c-2.1-3.9-3.3-6.2-7.7-3.5S224.3,230.6,220,233.7z"/>
	<path class="st4" d="M401.5,221.8c2.8,1.8,5.3,4,7.5,6.6c2.3,2.9,3.6,6.5,5.8,9.5s5,5.2,7.4,7.8c3.7,4.1,6.1,9,8.5,13.9
		c-5.9,7.7-12.4,15-19.3,21.8c-0.8,0.9-1.8,1.6-2.9,1.9c-1.6,0.2-3.1-0.5-4.1-1.7c-1.1-1.1-1.8-2.5-2.9-3.7
		c-2.4-2.5-5.7-4.1-9.1-4.4c-3.4-0.3-6.9-0.4-10.3-0.1c-0.8,0.1-1.5,0-2.2-0.4c-0.5-0.4-0.9-0.8-1.2-1.4c-4-6.9-2.8-15.5-1.3-23.4
		l3.3-18c0.5-3.4,1.4-6.8,2.7-10c1.2-2.6,4-7.1,7.4-6.4S398.6,219.7,401.5,221.8z"/>
</g>
</svg>
