<?xml version="1.0" encoding="utf-8"?>
<!-- Generator: Adobe Illustrator 19.2.1, SVG Export Plug-In . SVG Version: 6.00 Build 0)  -->
<svg version="1.1" id="Layer_1" xmlns="http://www.w3.org/2000/svg" xmlns:xlink="http://www.w3.org/1999/xlink" x="0px" y="0px"
	 viewBox="0 0 595.3 841.9" style="enable-background:new 0 0 595.3 841.9;" xml:space="preserve">
<style type="text/css">
	.st0{fill:#45AAE0;}
	.st1{fill:#FFFFFF;}
</style>
<g>
	<polygon class="st0" points="152.4,390.7 405.4,318.8 443.1,451.6 424.8,456.8 438.8,505.8 375.8,470.7 190.1,523.4 	"/>
	<path class="st1" d="M305.8,449.5l-5.6-2.8c-20-10.1-33.1-16.5-36.5-28.3c-2.8-9.2,2.4-18.9,11.6-21.7c0.2,0,0.3-0.1,0.5-0.1
		c5.4-1.5,11.1-0.6,15.7,2.6c2.3-5.1,6.7-8.9,12-10.4c9.2-2.7,18.9,2.5,21.6,11.7c0,0.2,0.1,0.3,0.1,0.5
		c3.3,11.8-4.4,24.2-16.2,43.2L305.8,449.5z"/>
</g>
</svg>
