<?xml version="1.0" encoding="utf-8"?>
<!-- Generator: Adobe Illustrator 19.2.1, SVG Export Plug-In . SVG Version: 6.00 Build 0)  -->
<svg version="1.1" id="Layer_1" xmlns="http://www.w3.org/2000/svg" xmlns:xlink="http://www.w3.org/1999/xlink" x="0px" y="0px"
	 viewBox="0 0 954.5 887.8" style="enable-background:new 0 0 954.5 887.8;" xml:space="preserve">
<style type="text/css">
	.st0{fill:url(#SVGID_1_);}
	.st1{fill:#F6F7F9;}
	.st2{opacity:0.2;}
	.st3{fill:#6466AF;}
</style>
<linearGradient id="SVGID_1_" gradientUnits="userSpaceOnUse" x1="508.7013" y1="59.1407" x2="508.7013" y2="829.1362" gradientTransform="matrix(1 0 0 -1 0 888.0569)">
	<stop  offset="0" style="stop-color:#818181;stop-opacity:0.25"/>
	<stop  offset="0.54" style="stop-color:#818181;stop-opacity:0.12"/>
	<stop  offset="1" style="stop-color:#818181;stop-opacity:0.1"/>
</linearGradient>
<polygon class="st0" points="223.5,58.9 223.5,88.8 223.5,828.9 793.9,828.9 793.9,88.8 793.9,58.9 "/>
<rect x="228.5" y="65.7" class="st1" width="560.4" height="29.3"/>
<g class="st2">
	<rect x="228.5" y="65.7" class="st3" width="560.4" height="29.3"/>
</g>
<rect x="228.5" y="95" class="st1" width="560.4" height="727.1"/>
<ellipse class="st1" cx="243.3" cy="80.4" rx="5.1" ry="5"/>
<ellipse class="st1" cx="257.2" cy="80.4" rx="5.1" ry="5"/>
<ellipse class="st1" cx="271" cy="80.4" rx="5.1" ry="5"/>
<g class="st2">
	<rect x="328.5" y="139.9" class="st3" width="360.3" height="13.7"/>
</g>
<rect x="641" y="139.9" class="st3" width="47.9" height="13.7"/>
<g class="st2">
	<rect x="282" y="217.9" class="st3" width="453.5" height="157.7"/>
</g>
<rect x="409.2" y="275.4" class="st1" width="261.6" height="13.7"/>
<rect x="409.2" y="304.4" class="st1" width="135.7" height="13.7"/>
<rect x="641" y="345.9" class="st3" width="47.9" height="13.7"/>
<ellipse class="st1" cx="336.7" cy="296.7" rx="25.6" ry="24.9"/>
<g class="st2">
	<rect x="282" y="419.8" class="st3" width="453.5" height="157.7"/>
</g>
<rect x="409.2" y="477.3" class="st1" width="261.6" height="13.7"/>
<rect x="409.2" y="506.3" class="st1" width="135.7" height="13.7"/>
<rect x="641" y="547.8" class="st3" width="47.9" height="13.7"/>
<ellipse class="st1" cx="336.7" cy="498.6" rx="25.6" ry="24.9"/>
<g class="st2">
	<rect x="282" y="621.7" class="st3" width="453.5" height="157.7"/>
</g>
<rect x="409.2" y="679.2" class="st1" width="261.6" height="13.7"/>
<rect x="409.2" y="708.2" class="st1" width="135.7" height="13.7"/>
<rect x="641" y="749.7" class="st3" width="47.9" height="13.7"/>
<ellipse class="st1" cx="336.7" cy="700.6" rx="25.6" ry="24.9"/>
</svg>
