<?xml version="1.0" encoding="utf-8"?>
<!-- Generator: Adobe Illustrator 24.3.0, SVG Export Plug-In . SVG Version: 6.00 Build 0)  -->
<svg version="1.1" id="Layer_1" xmlns="http://www.w3.org/2000/svg" xmlns:xlink="http://www.w3.org/1999/xlink" x="0px" y="0px"
	 viewBox="0 0 1182.7 1318.1" style="enable-background:new 0 0 1182.7 1318.1;" xml:space="preserve">
<style type="text/css">
	.st0{opacity:0.1;fill:#6466AF;enable-background:new    ;}
	.st1{fill:url(#SVGID_1_);}
	.st2{fill:#F6F7F9;}
	.st3{opacity:0.2;}
	.st4{fill:#6466AF;}
</style>
<g>
	<path class="st0" d="M54.3,830.7c-13.1,4.5-29,13.7-26.3,28.2c1.3,7.4,7.3,12.8,13,17.5c24.3,19.7,50.9,36.2,79.4,49.2
		c13.6,6.2,28,11.8,38.3,23.2s15,27.2,18.3,42.5c7.8,36.3,9.7,73.5,5.7,110.4c40.9,0.8,86.2-0.1,115.2-29.6
		c17.3-17.7,26.6-43.8,47-57.5c13.6-9.1,30.3-11.4,46.5-13.3c76.6-9,153.6-14.4,230.9-16.3c32.4-0.8,65.5-1.1,95.8-12.4
		s57.8-36,63.9-69.5c1-5.2,1.6-10.8,5.1-14.5c3.2-3.2,7.9-4,12.3-4.6l265.9-36c14.6-2,29.6-4.1,41.9-12.4
		c11.9-8,19.9-20.8,27.5-33.2c17.5-28.5,35.7-63,23.6-95.6c-9.7-26.1-35.8-41.1-60.8-50.4s-51.8-15.9-72.1-34.1
		c-30.8-27.8-37.7-74-46.4-115.4c-7.9-37.5-18.9-74.3-33-109.9c-12.4-31.3-27.6-62.2-50.2-86.6c-22.6-24.4-53.7-41.7-85.3-40.4
		c-41.3,1.6-77.6,33.8-119,29.8c-34.9-3.4-63.4-31.4-94.8-48.8c-55.8-30.9-121.8-28.2-182.9-18.6c-64.8,10.2-130,28.1-182.5,68.3
		c-12,9.2-23.5,19.8-30.5,33.7c-10.8,21.2-9.9,47.1-15.3,70.7C163.7,500.1,46.8,539.7,22.8,634c-8.5,33.5-2.2,69.8,13.4,100.7
		c16.8,33.3,50.7,47.5,68.1,76.1C92.7,821.5,69.6,825.4,54.3,830.7z"/>
	<g>
		
			<linearGradient id="SVGID_1_" gradientUnits="userSpaceOnUse" x1="468.2353" y1="736.2961" x2="468.2353" y2="-33.704" gradientTransform="matrix(1 0 0 1 0 312.0569)">
			<stop  offset="0" style="stop-color:#818181;stop-opacity:0.25"/>
			<stop  offset="0.54" style="stop-color:#818181;stop-opacity:0.12"/>
			<stop  offset="1" style="stop-color:#818181;stop-opacity:0.1"/>
		</linearGradient>
		<polygon class="st1" points="183.04,278.35 183.04,308.25 183.04,1048.35 753.44,1048.35 753.44,308.25 753.44,278.35 		"/>
		<rect x="188.04" y="285.15" class="st2" width="560.4" height="29.3"/>
		<g class="st3">
			<rect x="188.04" y="285.15" class="st4" width="560.4" height="29.3"/>
		</g>
		<rect x="188.04" y="314.45" class="st2" width="560.4" height="727.1"/>
		<ellipse class="st2" cx="202.84" cy="299.85" rx="5.1" ry="5"/>
		<ellipse class="st2" cx="216.74" cy="299.85" rx="5.1" ry="5"/>
		<ellipse class="st2" cx="230.54" cy="299.85" rx="5.1" ry="5"/>
		<g class="st3">
			<rect x="288.04" y="359.35" class="st4" width="360.3" height="13.7"/>
		</g>
		<rect x="600.54" y="359.35" class="st4" width="47.9" height="13.7"/>
		<g class="st3">
			<rect x="241.54" y="437.35" class="st4" width="453.5" height="157.7"/>
		</g>
		<rect x="368.74" y="494.85" class="st2" width="261.6" height="13.7"/>
		<rect x="368.74" y="523.85" class="st2" width="135.7" height="13.7"/>
		<rect x="600.54" y="565.35" class="st4" width="47.9" height="13.7"/>
		<ellipse class="st2" cx="296.24" cy="516.15" rx="25.6" ry="24.9"/>
		<g class="st3">
			<rect x="241.54" y="639.25" class="st4" width="453.5" height="157.7"/>
		</g>
		<rect x="368.74" y="696.75" class="st2" width="261.6" height="13.7"/>
		<rect x="368.74" y="725.75" class="st2" width="135.7" height="13.7"/>
		<rect x="600.54" y="767.25" class="st4" width="47.9" height="13.7"/>
		<ellipse class="st2" cx="296.24" cy="718.05" rx="25.6" ry="24.9"/>
		<g class="st3">
			<rect x="241.54" y="841.15" class="st4" width="453.5" height="157.7"/>
		</g>
		<rect x="368.74" y="898.65" class="st2" width="261.6" height="13.7"/>
		<rect x="368.74" y="927.65" class="st2" width="135.7" height="13.7"/>
		<rect x="600.54" y="969.15" class="st4" width="47.9" height="13.7"/>
		<ellipse class="st2" cx="296.24" cy="920.05" rx="25.6" ry="24.9"/>
	</g>
</g>
</svg>
