<?xml version="1.0" encoding="utf-8"?>
<!-- Generator: Adobe Illustrator 19.2.1, SVG Export Plug-In . SVG Version: 6.00 Build 0)  -->
<svg version="1.1" id="Layer_1" xmlns="http://www.w3.org/2000/svg" xmlns:xlink="http://www.w3.org/1999/xlink" x="0px" y="0px"
	 viewBox="0 0 954.5 887.8" style="enable-background:new 0 0 954.5 887.8;" xml:space="preserve">
<style type="text/css">
	.st0{opacity:0.1;fill:#6466AF;enable-background:new    ;}
	.st1{fill:none;stroke:#545561;stroke-width:2;stroke-miterlimit:10;}
	.st2{fill:#6466AF;}
	.st3{opacity:0.25;fill:#010101;enable-background:new    ;}
</style>
<g>
	<ellipse class="st0" cx="459.9" cy="621.8" rx="177" ry="44.3"/>
	<path class="st1" d="M491.2,633.5c0,0-16-110.5,32.1-183.2c20.4-30.4,30.4-66.6,28.6-103.1c-1-17.4-3.6-34.6-7.8-51.4"/>
	<path class="st2" d="M574.2,249.7c-1.8,13-30.7,47.3-30.7,47.3s-18.1-41.1-16.3-54.1c1.6-13,13.5-22.3,26.5-20.6
		c13,1.6,22.2,13.5,20.6,26.5C574.3,249.1,574.3,249.4,574.2,249.7L574.2,249.7z"/>
	<path class="st2" d="M602.8,327.2c-8.6,9.9-51.5,23-51.5,23s7.1-44.4,15.7-54.2c8.6-9.9,23.6-10.9,33.5-2.3
		C610.4,302.3,611.4,317.3,602.8,327.2L602.8,327.2L602.8,327.2z"/>
	<path class="st2" d="M583.5,450c-12.4,4.2-56-6.1-56-6.1s28.5-34.7,40.9-38.9c12.6-3.5,25.7,3.9,29.2,16.5
		C600.9,433.2,594.8,445.5,583.5,450z"/>
	<path class="st2" d="M548,539.6c-11.5,6.2-56.3,3.4-56.3,3.4s22.2-39,33.7-45.2c11.5-6.2,25.9-1.9,32.2,9.6
		C563.9,518.9,559.5,533.3,548,539.6L548,539.6L548,539.6z"/>
	<path class="st2" d="M501.6,345.6c8,10.4,50,26,50,26s-4.5-44.7-12.5-55.1c-8-10.4-22.9-12.3-33.3-4.3
		C495.5,320.3,493.6,335.2,501.6,345.6z"/>
	<path class="st2" d="M461.4,450.9c10.7,7.5,55.5,9.8,55.5,9.8s-17.6-41.3-28.3-48.8c-10.6-7.7-25.5-5.3-33.1,5.4
		s-5.3,25.5,5.4,33.2C461,450.7,461.2,450.8,461.4,450.9L461.4,450.9z"/>
	<path class="st2" d="M436.4,558.7c9.3,9.2,53.1,19.1,53.1,19.1s-10.4-43.7-19.7-52.9c-9.2-9.4-24.2-9.5-33.6-0.3
		c-9.3,9.2-9.5,24.3-0.3,33.6C436.1,558.4,436.2,558.5,436.4,558.7L436.4,558.7z"/>
	<path class="st3" d="M574.2,249.7c-1.8,13-30.7,47.3-30.7,47.3s-18.1-41.1-16.3-54.1c1.6-13,13.5-22.3,26.5-20.6
		c13,1.6,22.2,13.5,20.6,26.5C574.3,249.1,574.3,249.4,574.2,249.7L574.2,249.7z"/>
	<path class="st3" d="M602.8,327.2c-8.6,9.9-51.5,23-51.5,23s7.1-44.4,15.7-54.2c8.6-9.9,23.6-10.9,33.5-2.3
		C610.4,302.3,611.4,317.3,602.8,327.2L602.8,327.2L602.8,327.2z"/>
	<path class="st3" d="M583.5,450c-12.4,4.2-56-6.1-56-6.1s28.5-34.7,40.9-38.9c12.6-3.5,25.7,3.9,29.2,16.5
		C600.9,433.2,594.8,445.5,583.5,450z"/>
	<path class="st3" d="M548,539.6c-11.5,6.2-56.3,3.4-56.3,3.4s22.2-39,33.7-45.2c11.5-6.2,25.9-1.9,32.2,9.6
		C563.9,518.9,559.5,533.3,548,539.6L548,539.6L548,539.6z"/>
	<path class="st3" d="M501.6,345.6c8,10.4,50,26,50,26s-4.5-44.7-12.5-55.1c-8-10.4-22.9-12.3-33.3-4.3
		C495.5,320.3,493.6,335.2,501.6,345.6z"/>
	<path class="st3" d="M461.4,450.9c10.7,7.5,55.5,9.8,55.5,9.8s-17.6-41.3-28.3-48.8c-10.6-7.7-25.5-5.3-33.1,5.4
		s-5.3,25.5,5.4,33.2C461,450.7,461.2,450.8,461.4,450.9L461.4,450.9z"/>
	<path class="st3" d="M436.4,558.7c9.3,9.2,53.1,19.1,53.1,19.1s-10.4-43.7-19.7-52.9c-9.2-9.4-24.2-9.5-33.6-0.3
		c-9.3,9.2-9.5,24.3-0.3,33.6C436.1,558.4,436.2,558.5,436.4,558.7L436.4,558.7z"/>
	<path class="st1" d="M492.5,630c0,0-59.4-94.5-44.7-180.6c6.4-36,0.9-73.2-15.6-105.8c-8-15.4-17.3-30.1-28-43.9"/>
	<path class="st2" d="M413.1,245.4c3.5,12.6-9,55.7-9,55.7S371,271,367.4,258.3c-3.6-12.6,3.8-25.8,16.4-29.3
		C396.5,225.4,409.6,232.7,413.1,245.4L413.1,245.4z"/>
	<path class="st2" d="M470.6,304.7c-3.9,12.5-37.8,41.9-37.8,41.9s-11.5-43.4-7.6-55.9c3.9-12.5,17.2-19.6,29.7-15.7
		C467.4,278.9,474.4,292.2,470.6,304.7L470.6,304.7z"/>
	<path class="st2" d="M502.6,424.8c-9.7,8.9-53.7,17.1-53.7,17.1s12-43.2,21.6-52c9.7-8.9,24.7-8.2,33.6,1.5
		C513,401,512.3,416,502.6,424.8L502.6,424.8z"/>
	<path class="st2" d="M506.4,521.1c-8,10.4-50.1,25.9-50.1,25.9s4.6-44.6,12.5-55.1c7.8-10.6,22.6-12.8,33.2-5
		c10.6,7.8,12.8,22.7,5,33.2c-0.2,0.3-0.4,0.6-0.7,0.9V521.1z"/>
	<path class="st2" d="M385.5,362.6c11.5,6.3,56.3,3.5,56.3,3.5s-22.1-39-33.6-45.3c-11.5-6.3-25.9-2-32.2,9.6
		C369.7,341.9,374,356.4,385.5,362.6z"/>
	<path class="st2" d="M391.4,475.2c12.9,2.5,54.7-13.5,54.7-13.5s-32.8-30.6-45.7-33.1c-12.8-2.8-25.5,5.3-28.3,18.1
		c-2.8,12.8,5.3,25.5,18.1,28.3C390.7,475.1,391,475.1,391.4,475.2z"/>
	<path class="st2" d="M412.1,583.9c12.2,4.6,56.2-4.1,56.2-4.1s-27.1-35.7-39.4-40.3c-12.5-4-25.8,2.9-29.8,15.4
		C395.4,566.4,401,578.9,412.1,583.9L412.1,583.9z"/>
</g>
</svg>
