<?xml version="1.0" encoding="utf-8"?>
<!-- Generator: Adobe Illustrator 19.2.1, SVG Export Plug-In . SVG Version: 6.00 Build 0)  -->
<svg version="1.1" id="Layer_1" xmlns="http://www.w3.org/2000/svg" xmlns:xlink="http://www.w3.org/1999/xlink" x="0px" y="0px"
	 viewBox="0 0 954.5 887.8" style="enable-background:new 0 0 954.5 887.8;" xml:space="preserve">
<style type="text/css">
	.st0{fill:url(#SVGID_1_);}
	.st1{fill:#4D4D79;}
	.st2{fill:#F9B7B9;}
	.st3{opacity:0.1;fill:#010101;enable-background:new    ;}
	.st4{fill:#CBCDDA;}
	.st5{opacity:5.000000e-002;fill:#010101;enable-background:new    ;}
	.st6{fill:none;stroke:#3A53A4;stroke-miterlimit:10;}
	.st7{fill:#484564;}
	.st8{fill:#472827;}
	.st9{opacity:0.1;}
	.st10{fill:#010101;}
</style>
<linearGradient id="SVGID_1_" gradientUnits="userSpaceOnUse" x1="1249.5184" y1="15.7317" x2="1249.5184" y2="819.259" gradientTransform="matrix(-1 0 0 -1 1679.8937 875.947)">
	<stop  offset="0" style="stop-color:#818181;stop-opacity:0.25"/>
	<stop  offset="0.54" style="stop-color:#818181;stop-opacity:0.12"/>
	<stop  offset="1" style="stop-color:#818181;stop-opacity:0.1"/>
</linearGradient>
<path class="st0" d="M279.9,407.7c-4.8,23-13.5,51.4-13.5,51.4c8.6,10.5,46.2,12.4,46.2,12.4l0.1-0.1h0.6c0.3,1.5,0.6,2.8,0.9,4.2
	c-0.1,1.3-0.1,2.6-0.2,4c-0.5,1.6-0.7,3.3-0.5,4.9c0.1,0.4,0.2,0.7,0.3,1.1c-0.9,20.8-1.5,43-1,55.9c0,3.6,0.4,7.3,1.1,10.8
	c0.6,2.7,1,5.5,1.1,8.3c0.6,18.8-3.7,50.3-3.7,50.3s0.1,0.4,0.2,0.7c-0.1,0.5-0.1,0.8-0.1,0.8c0.4,1.3,0.6,2.6,0.6,3.9
	c0.3,15.8-8.3,50.3-8.3,50.3s-7,53-6,73.2c0,1.6,0.1,3.2,0.3,4.8c2.1,16.8,5,63.7,5,63.7c0.5,0.8,1,1.5,1.6,2.2
	c-0.2,1-0.5,2.1-0.9,3.1c-3.4,10.6-4.8,21.7-4.2,32.8c0.1,1.3,0.2,2.7,0.3,4.2c1.4,17.3,41.4,6.5,44,4.5c0.9-0.7,0.3-7-1-14.9
	l41.2,10.6c0,0,29.2,4.5,43.1,0c13.9-4.5,13.4-17-6.5-19c-13.9-1.4-25-15-30.4-23c2.1-6,17.9-51.7,20.8-80c1.9-18.3,5-36.4,9.2-54.2
	l3.1-42.1l5.5-24.8l6.6-32.8c7.4-24.1,9.7-64.3,9.7-64.3l5.7-39.5c0.8-4.3,1.2-8.6,1.3-13c5.4,1.2,10.7,2.6,15.9,4.5
	c9-7.3-3.7-77.8-3.7-77.8s-6.1-44.5-11.3-85.1c11.9-1.9,24.8,1.1,24.8,1.1l75.4,1.7c1.6-2.2,2.9-4.5,4-6.9h3.2
	c0.4-0.6,0.7-1.2,0.9-1.9l1.3,0.3c4.9,1.2,9.7,2.7,14.4,4.6c0,0,23.8,3,20.2-23.1c-2.7-19.5-23.8-12.4-34.4-7.6l-1.3,0.6
	c-0.1-0.7-0.2-1.1-0.2-1.1l-3.4,0.7c-0.2-0.5-0.4-1.1-0.7-1.6c0,0-37-1.5-67-6.2c-21.3-3.3-37.4-16.1-45-23.2
	c-5.3-27.9-20.5-36.4-20.5-36.4c-8.5-0.4-16.1-4.4-20.8-7.4c-1.7-1.1-3.3-2.2-4.9-3.5l-0.8,0.5l-0.1-0.1c5.1-4.9,10.3-9.5,15-13.3
	l2.1-1.7c25.4-2.6,44-26.3,41.5-52.9c-0.5-5.1-1.7-10.2-3.7-14.9c-0.2-0.5-0.4-0.9-0.6-1.4c4.8-0.6,8.6-4.5,9.2-9.4
	c0.5-5.5-3.1-11.3-0.8-16.2c0.4-0.7,0.8-1.5,1.1-2.3c0.2-0.7,0.3-1.5,0.2-2.3c-0.4-4.7-2.6-9-6.2-11.8c-5.4-4.1-10.1-2-16-2.4
	c-6.8-0.4-13.5-2.1-20.1-3.3c-7.6-1.3-15.5-2.2-23.1-0.8c-7.6,1.4-15.1,5.3-19.5,12c-1.9,2.8-3.2,6.1-5,9c-2,3.4-4.7,6.3-7,9.5
	c-3.9,5.3-7.1,11.7-6.8,18.4c0.2,3.8,1.5,7.5,1.7,11.3c0,3.5-0.2,7.1-0.7,10.6c-0.4,4.5-0.1,9.1,0.7,13.5c0.2,1.4,0.7,2.7,1.5,3.8
	c0.9,1,2,1.7,3.2,2.2c1.3,0.5,2.6,1,4,1.3c-1.5,3.7-3.4,7.2-5.6,10.5l-2-2.2l-5.5,8.9l-0.2-0.6c-0.3,0.6-0.6,1.1-0.9,1.6l-0.6-1.6
	c-2.4,5.1-7,9.3-12.2,12.8c-14.3,9.4-34.3,13.3-34.3,13.3c-32.1,4.9-26.2,39.6-26.2,39.6s-13.6,62-17.5,100.4
	c-3.8,38.3,10.4,62.8,10.4,62.8L279.9,407.7z M433.2,294.4c1.2,4.3,2.3,8.3,3.3,11.9l-0.6,0.2C435.2,303.2,434.2,299,433.2,294.4
	L433.2,294.4z M397.8,190.3l-0.2,0.1L397.8,190.3L397.8,190.3z M342.4,838.4c-1.6-9.8-3.9-21.7-5.4-28.8c1-3.5,2.4-8.8,4-16.7
	c3.6-17.8,5.7-80.7,5.7-80.7l8.4-52.9c7.7-20.3,9.3-44.4,9.3-44.4c3.1-8.5,10.2-60.7,11.3-69c-0.3,5.8-1.1,20.4-1.5,36.7
	c0,0.1,0,0.3,0,0.4c-0.3,12.3-0.4,25.5,0,36.4l0,0c0.1,3.1,0.3,6,0.5,8.7c0.1,0.7,0.1,1.4,0.1,2.1c0.9,28.3-11.2,64-11.2,64
	s-5.4,26.4-4.6,41.2c0,2.7,0.4,5.3,1.1,7.8c0.4,1.2,0.6,2.4,0.6,3.6c0.2,14.1-7.7,43.8-9.8,51.1C346.5,807.6,343.2,832,342.4,838.4z
	"/>
<path class="st1" d="M386.9,799.8c0,0,14,26.6,33.7,28.6c19.7,2,20.2,14.4,6.4,18.9c-13.8,4.5-42.7,0-42.7,0L343,836.6
	c0,0,5-42.7,11.6-45S386.9,799.8,386.9,799.8z"/>
<path class="st1" d="M336.6,800.3c0,0,10.4,49.2,7.8,51.2c-2.6,2-42.2,12.7-43.7-4.5c-0.1-1.4-0.2-2.8-0.3-4.1
	c-0.6-11,0.8-22.1,4.1-32.5c1.1-3.2,1.7-6.6,1.6-10C305.5,793.4,336.6,800.3,336.6,800.3z"/>
<path class="st2" d="M349.5,177.8c0,0,32,82.3,26.3,55.9c-3.7-17.5,20.6-40.8,37.4-54.5c8.6-7,15.2-11.5,15.2-11.5
	s-60.1-73.4-55.9-41.7c1.2,8.7,0,17.5-3.3,25.6C364.9,161.9,358.1,170.9,349.5,177.8z"/>
<path class="st2" d="M554.1,294.7c2.4-0.4,4.9-0.2,7.3,0.5c4.9,1.2,9.6,2.7,14.3,4.5c0,0,23.6,3,20-22.9
	c-2.6-19.3-23.6-12.3-34.1-7.5c-3.6,1.6-5.9,3-5.9,3L554.1,294.7z"/>
<path class="st3" d="M554.1,294.7c2.4-0.4,4.9-0.2,7.3,0.5c2.6-6.8,0.6-22.8,0.2-25.9c-3.6,1.6-5.9,3-5.9,3L554.1,294.7z"/>
<path class="st4" d="M554,270.1l6.2-1.2c0,0,3.2,22.2-1,28h-7.1L554,270.1z"/>
<path class="st1" d="M430.3,310.5c0,0,18.9-11.8,21.1,3.1s5.2,40.4,5.2,40.4l5.2,32.4l6.8,65l-0.9,11.1c0,0-20.1-7-24.8-4.6
	s-8.5-27.3-8.5-27.3l-7.8-30.8l-1.2-65.3L430.3,310.5z"/>
<path class="st3" d="M430.3,310.5c0,0,18.9-11.8,21.1,3.1s5.2,40.4,5.2,40.4l5.2,32.4l6.8,65l-0.9,11.1c0,0-20.1-7-24.8-4.6
	s-8.5-27.3-8.5-27.3l-7.8-30.8l-1.2-65.3L430.3,310.5z"/>
<path class="st1" d="M440.4,234c0,0,19.6,23.1,49.3,27.8s66.4,6.1,66.4,6.1s9.2,17.3-4.1,35.8l-74.7-1.7c0,0-16.5-3.8-29.4,0
	L440.4,234z"/>
<path class="st5" d="M440.4,234c0,0,19.6,23.1,49.3,27.8s66.4,6.1,66.4,6.1s9.2,17.3-4.1,35.8l-74.7-1.7c0,0-16.5-3.8-29.4,0
	L440.4,234z"/>
<path class="st6" d="M602.9,328.9"/>
<path class="st3" d="M372.5,150.8c7.3,16.3,20,28.4,38.4,28.4c0.8,0,1.6,0,2.4,0c8.6-7,15.2-11.5,15.2-11.5s-60.1-73.4-55.9-41.7
	C373.9,135.7,375.4,143.6,372.5,150.8z"/>
<path class="st2" d="M365,129.8c0,26.5,20.5,48,45.8,48c25.3,0,45.9-21.5,45.9-48s-20.5-48-45.8-48l0,0
	c-25.3-0.1-45.8,21.3-45.9,47.8C365,129.6,365,129.7,365,129.8z"/>
<path class="st4" d="M337,423c0,0,102.2,9.4,106.1-4.2s-10.4-50.7-10.4-50.7l4.6-51.7l0.2-2c0,0-12.8-55.9-12.4-60.3
	c0.4-4-20.6-50.9-25-60.5l-0.8-1.7l-0.8,0.5l-0.3,0.2l-5,3.1l-19.8-4.9l-23.8-13.1l-2.3,142.9L337,423z"/>
<path class="st3" d="M390.2,193.7c0,0,7-2,9.7,5.3c1.1,3.1,2.3,6.2,3.7,9.1l2.7,17l5,26.8l3.7,118.9l-1.6,21.2l-9.1-17l-1.7-111
	v-13.8c-0.5-11.9-3.1-23.7-7.6-34.7l-1.2-3.1l-7.9-10.7L390.2,193.7z"/>
<path class="st1" d="M391.6,192.2c0,0,7-2,9.7,5.3c1.1,3.1,2.3,6.2,3.7,9.1l2.7,17l5,26.8l3.7,118.9l-1.7,21.1l-9.1-17l-1.7-111
	v-13.8c-0.5-11.9-3.1-23.7-7.6-34.7l-1.2-3.1l-8-10.6L391.6,192.2z"/>
<path class="st3" d="M361.7,161.5c0,0,24.2,26.8,32.7,30c0,0-4.3,20.4-8.5,24.3c0,0-25.4-27.1-29.9-29.3l-3.7-9.7L361.7,161.5z"/>
<path class="st4" d="M361.7,160c0,0,24.2,26.8,32.7,30c0,0-4.3,20.4-8.5,24.3c0,0-25.4-27.1-29.9-29.3l-3.7-9.7L361.7,160z"/>
<path class="st3" d="M397.9,192l0.2,0.7l7.8,21.8l13.9,41.1c0,0,0.1,0.4,0.4,1.2c2.3,7.5,14.6,48,17.1,59.8l0.2-2
	c0,0-12.8-55.9-12.3-60.4c0.4-4-20.6-50.9-25-60.5c-0.7-0.5-1.2-0.9-1.6-1.2L397.9,192z"/>
<path class="st1" d="M399.3,191.9l8,22.5l13.9,41.1c0,0,0.1,0.4,0.4,1.2c2.4,8,16.3,53.4,17.5,61.8c1.2,9.1,18.7,58.5,18.7,58.5
	l10,85.5c8.9-7.3-3.7-77.1-3.7-77.1s-14.2-103.6-17.6-138c-3.4-34.4-21.6-44.6-21.6-44.6c-8.4-0.4-16-4.3-20.6-7.3
	C402.5,194.4,400.8,193.2,399.3,191.9z"/>
<path class="st3" d="M298.8,742c2.1,16.6,5,63.1,5,63.1c10,15.7,32,7.2,32,7.2s2.4-4.7,5.9-22.4c3.6-17.6,5.7-80,5.7-80l8.3-52.4
	c7.6-20.1,9.2-44,9.2-44c3.3-9.1,11.4-69.6,11.4-69.6s-3.3,54.1-1.2,82.7s-10.9,67.1-10.9,67.1s-7.4,36-3.6,47.2
	c3.8,11.2-9.5,57.4-9.5,57.4c1.2,13.4,38.9,7.9,38.9,7.9s17.8-49.9,20.9-80c1.9-18.1,4.9-36.1,9.1-53.8l3.1-41.7l5.5-24.6l6.5-32.5
	c7.3-23.9,9.6-63.7,9.6-63.7l5.7-39.1c3.7-19.3-1.1-42-4.3-53.9c-1.4-5.1-2.5-8.3-2.5-8.3c-3.3,2.4-22,5.2-31.7,7.6
	c-5.3,1.3-10.8,1.7-16.2,1.3c-24.5-2-48.7-6.7-72.2-13.8l-2.5-0.8l-0.5,4.5l-1.2,10.7l-2.1,18.9c0,0-6.4,100.8-2.6,114.5
	c3.8,13.7-2.6,59.6-2.6,59.6c3.6,10.9-7.6,55.2-7.6,55.2S296.7,725.3,298.8,742z"/>
<path class="st7" d="M298.8,740.5c2.1,16.6,5,63.1,5,63.1c10,15.7,32,7.2,32,7.2s2.4-4.7,5.9-22.4s5.7-80,5.7-80l8.3-52.4
	c7.6-20.1,9.2-44,9.2-44c3.3-9.1,11.4-69.6,11.4-69.6s-3.3,54.1-1.2,82.7s-10.9,67.1-10.9,67.1s-7.4,36-3.6,47.2
	c3.8,11.2-9.5,57.4-9.5,57.4c1.2,13.4,38.9,7.9,38.9,7.9s17.8-49.9,20.9-80c1.9-18.1,4.9-36.1,9.1-53.8l3.1-41.7l5.5-24.6l6.5-32.5
	c7.3-23.9,9.6-63.7,9.6-63.7l5.7-39.1c3.7-19.3-1.1-42-4.3-53.9c-1.4-5.1-2.5-8.3-2.5-8.3c-3.3,2.4-22,5.2-31.7,7.6
	c-5.3,1.3-10.8,1.7-16.2,1.3c-24.5-2-48.7-6.7-72.2-13.8l-2.5-0.8l-0.5,4.5l-1.2,10.7l-2.1,18.9c0,0-6.4,100.8-2.6,114.5
	c3.8,13.7-2.6,59.6-2.6,59.6c3.6,10.9-7.6,55.2-7.6,55.2S296.7,723.8,298.8,740.5z"/>
<path class="st3" d="M365,129.8c0,8.4,2.1,16.6,6.1,23.9c7.1,1.3,14.7-0.1,20.1-5.1c3.7-3.4,6-8,9.2-11.9c2-2.4,4.2-4.7,6.6-6.8
	c1.5-1.6,3.3-2.9,5.2-3.9c2-1,4.3-1.1,6.2-0.1c2.5,1.5,3.4,4.8,4.8,7.4c1.1,2.2,3,4,5.3,4.8c2.3,0.8,4.8-0.1,6.2-2.2
	c1.5-2.8,0.4-7.2,3-8.9c0.7-0.4,1.4-0.7,2.1-0.9c3.4-1.6,3.7-6.3,4-10.2c0.1-1.9,0.5-4,2.1-5.1c1.5-1,3.5-0.5,5.3-0.5
	c0.5,0,1.1,0,1.6-0.1c-10.3-24.2-37.3-35.2-60.5-24.4C375.7,93.5,365.1,110.7,365,129.8L365,129.8z"/>
<path class="st8" d="M455.6,67.4c3.6,2.7,5.8,7,6.2,11.6c0.1,0.8,0,1.5-0.2,2.3c-0.3,0.8-0.7,1.5-1.1,2.3
	c-2.3,4.9,1.2,10.6,0.8,16.1c-0.6,5.3-4.9,9.3-10,9.4c-1.8,0-3.7-0.6-5.3,0.5c-1.6,1-1.9,3.2-2.1,5.1c-0.3,3.9-0.7,8.6-4,10.2
	c-0.7,0.3-1.4,0.6-2.1,0.9c-2.6,1.7-1.5,6.1-3,8.8c-1.4,2.1-3.9,3-6.2,2.2c-2.3-0.8-4.1-2.6-5.3-4.8c-1.4-2.6-2.3-5.9-4.8-7.4
	c-2-1-4.3-1-6.2,0.1c-1.9,1-3.7,2.3-5.2,3.9c-2.3,2.1-4.5,4.4-6.6,6.8c-3.1,3.9-5.5,8.5-9.2,11.9c-6.9,6.3-17.5,7-26,3.4
	c-1.2-0.4-2.3-1.2-3.2-2.2c-0.8-1.1-1.3-2.5-1.5-3.9c-0.9-4.4-1.1-8.9-0.7-13.4c0.5-3.5,0.8-7,0.7-10.5c-0.2-3.8-1.5-7.4-1.7-11.2
	c-0.3-6.6,2.8-13,6.7-18.3c2.3-3.1,4.9-6,6.9-9.4c1.7-2.9,3-6.1,4.9-9c4.4-6.5,11.8-10.5,19.4-11.9s15.3-0.5,22.9,0.8
	c6.6,1.1,13.2,2.8,20,3.2C445.5,65.4,450.3,63.3,455.6,67.4z"/>
<path class="st3" d="M399.3,191.9l8,22.5l13.9,41.1c0,0,0.1,0.4,0.4,1.2l0,0l-17.5-61.3C402.4,194.4,400.8,193.2,399.3,191.9z"/>
<path class="st2" d="M312.7,449.1c0,0-0.8,27.2,6.2,34l18.6-36.8l-15.6-7.9L312.7,449.1z"/>
<path class="st3" d="M269.3,459.1c8.5,10.5,45.7,12.3,45.7,12.3l36.8-60.7c0,0,8.7-6.3,25.1-34.8c16.3-28.5,15.8-50.5,15-66.9
	s-11.2-63.5-11.2-63.5c-1.6-10.6-24.5-77.1-24.5-77.1c-2.4,5-6.9,9.2-12.1,12.7c-14.2,9.3-34,13.1-34,13.1
	c-31.9,4.8-26,39.3-26,39.3s-0.4,134,1.6,150C287.6,399.5,269.3,459.1,269.3,459.1z"/>
<polygon class="st4" points="312.2,454.3 313.3,464.3 326.3,459.3 335.7,444.3 328.6,438.4 "/>
<path class="st3" d="M312.7,415.8l6.8,0.7l65.2,6.8c10.5,1.1,21,0.6,31.3-1.6l30.2-6.3c-1.4-5.1-2.5-8.3-2.5-8.3
	c-3.3,2.4-22,5.2-31.7,7.6c-5.3,1.3-10.8,1.7-16.2,1.3c-24.5-2-48.7-6.7-72.3-13.8l-2.9,3.7L312.7,415.8z"/>
<g class="st9">
	<path class="st10" d="M443,407.5c0.2-0.1,0.4-0.2,0.6-0.4l0.1,0.2L443,407.5z"/>
	<path class="st10" d="M304.5,664.7c0,0,11.2-44.3,7.6-55.2c0,0,6.4-45.9,2.6-59.6c-3.8-13.7,2.6-114.5,2.6-114.5l2.1-18.9l1.2-10.7
		l0.5-4.5c0,0,0.8,0.3,2.5,0.8l1.5,0.5l-0.3,1.8l-1.2,10.7l-2.1,18.9c0,0-6.4,100.8-2.6,114.5c3.8,13.7-2.6,59.6-2.6,59.6
		c3.6,10.9-7.6,55.2-7.6,55.2s-7.8,59.1-5.7,75.8c2.1,16.6,5,63.1,5,63.1c7.3,11.4,21,10,27.9,8.4c-0.1,0.2-0.1,0.3-0.1,0.3
		s-22.1,8.4-32-7.2c0,0-2.8-46.5-5-63.1S304.5,664.7,304.5,664.7z"/>
	<path class="st10" d="M360.7,739.5c-3.7-11.2,3.6-47.2,3.6-47.2s13-38.5,10.9-67.1c-0.9-11.9-0.8-28.2-0.4-43.2
		c3-19.3,5.9-41,5.9-41s-3.3,54.1-1.2,82.7c2.1,28.6-10.9,67.1-10.9,67.1s-7.4,36-3.6,47.2c3.8,11.2-9.5,57.4-9.5,57.4
		c0.9,10.8,25.3,9.4,34.9,8.4l-0.4,1c0,0-37.7,5.5-38.9-7.9C351.2,796.8,364.5,750.6,360.7,739.5z"/>
</g>
<path class="st1" d="M267.8,459.1c8.5,10.5,45.7,12.3,45.7,12.3l36.8-60.7c0,0,8.7-6.3,25.1-34.8s15.8-50.5,15-66.9
	s-11.2-63.5-11.2-63.5c-1.6-10.6-24.5-77.1-24.5-77.1c-2.4,5-6.9,9.2-12.1,12.7c-14.2,9.3-34,13.1-34,13.1
	c-31.9,4.8-26,39.3-26,39.3s-0.3,133.9,1.6,150C286.2,399.4,267.8,459.1,267.8,459.1z"/>
<path class="st3" d="M347.9,201.3l8,3.2l-5.3,3.9l39.8,100.6c-0.9-16.4-11.2-63.5-11.2-63.5c-1.6-10.6-24.5-77.1-24.5-77.1
	c-2.4,5-6.9,9.2-12.1,12.7L347.9,201.3z"/>
<polygon class="st3" points="338.3,380.4 297.5,369.5 292.2,386.8 333.8,397.4 "/>
<path class="st3" d="M315,208.3c0,0,18.5,18.3,11.6,58.9S308.4,352,308.4,352l30.1,87.4c0,0-21,22.9-31.3,25.7l-30.1-69.9
	c0,0-14.1-24.2-10.3-62.2c3.7-38,17.3-99.5,17.3-99.5S284,196,315,208.3z"/>
<path class="st1" d="M313.6,208.3c0,0,18.5,18.3,11.6,58.9C318.2,307.8,307,352,307,352l30,87.4c0,0-21,22.9-31.3,25.7l-30.1-69.9
	c0,0-14.1-24.2-10.3-62.2c3.7-38,17.3-99.5,17.3-99.5S282.6,196,313.6,208.3z"/>
<path class="st3" d="M336,441.2c0,0-23.5,34-21.7,43.1c1.8,9.1,8.7,4.2,8.7,4.2l9.3-13.3l8.3-24.8
	C340.6,450.4,339.8,439.7,336,441.2z"/>
<path class="st3" d="M338.9,441.2c0,0-23.5,34-21.7,43.1c1.8,9.1,8.7,4.2,8.7,4.2l9.2-13.3l8.3-24.8
	C343.4,450.4,342.6,439.7,338.9,441.2z"/>
<path class="st7" d="M337.5,441.2c0,0-23.5,34-21.7,43.1c1.8,9.1,8.7,4.2,8.7,4.2l9.2-13.3l8.3-24.8
	C342,450.4,341.2,439.7,337.5,441.2z"/>
</svg>
