<?xml version="1.0" encoding="utf-8"?>
<!-- Generator: Adobe Illustrator 19.2.1, SVG Export Plug-In . SVG Version: 6.00 Build 0)  -->
<svg version="1.1" id="Layer_1" xmlns="http://www.w3.org/2000/svg" xmlns:xlink="http://www.w3.org/1999/xlink" x="0px" y="0px"
	 viewBox="0 0 595.3 841.9" style="enable-background:new 0 0 595.3 841.9;" xml:space="preserve">
<style type="text/css">
	.st0{fill:#45AAE0;}
</style>
<path class="st0" d="M395,433.3c0-32.2-16.3-58.2-36.5-58.2c-12.7,0-23.8,10.3-30.3,25.9c-2.2-0.9-4.6-1.4-7-1.4
	c-6.1,0-11.7,3.1-16.3,8.4c-5.9-19.5-18.4-33-32.8-33c-13.5,0-25.3,11.8-31.6,29.2c-3.5-3-7.9-4.6-12.5-4.7c-15.5,0-28,20-28,44.7
	c-0.1,8.2,1.4,16.4,4.4,24.1h183.2C392.3,458.6,395,446.5,395,433.3z"/>
</svg>
