<?xml version="1.0" encoding="utf-8"?>
<!-- Generator: Adobe Illustrator 22.0.1, SVG Export Plug-In . SVG Version: 6.00 Build 0)  -->
<svg version="1.1" id="example-9" xmlns="http://www.w3.org/2000/svg" xmlns:xlink="http://www.w3.org/1999/xlink" x="0px" y="0px"
	 viewBox="0 0 278.4 177.7" style="enable-background:new 0 0 278.4 177.7;" xml:space="preserve">
<style type="text/css">
	.st0{fill:#F5F5FC;}
	.st1{fill:#F8F8FF;}
	.st2{fill:#E9EDFB;}
	.st3{fill:#B0C0F4;}
	.st4{fill:#FFFFFF;}
	.st5{fill:#E1E6FB;}
	.st6{fill:none;stroke:#FFFFFF;stroke-width:3;stroke-linecap:round;stroke-linejoin:round;}
	.st7{fill:#BAC5F4;}
	.st8{fill:url(#SVGID_1_);}
	.st9{fill:#4B44BE;}
	.st10{fill:url(#SVGID_2_);}
	.st11{fill:url(#SVGID_3_);}
	.st12{fill:url(#SVGID_4_);}
	.st13{fill:url(#SVGID_5_);}
	.st14{opacity:7.000000e-02;enable-background:new    ;}
	.st15{fill:#76C6E7;}
</style>
<title  style="animation-delay:0s;animation-direction:normal;animation-duration:0s;animation-fill-mode:none;animation-iteration-count:1;animation-name:none;animation-play-state:running;animation-timing-function:ease;background-attachment:scroll;background-blend-mode:normal;background-clip:border-box;background-color:rgba(0, 0, 0, 0);background-image:none;background-origin:padding-box;background-position:0% 0%;background-repeat:repeat;background-size:auto;border-bottom-color:rgb(33, 37, 41);border-bottom-left-radius:0px;border-bottom-right-radius:0px;border-bottom-style:none;border-bottom-width:0px;border-collapse:separate;border-image-outset:0;border-image-repeat:stretch;border-image-slice:100%;border-image-source:none;border-image-width:1;border-left-color:rgb(33, 37, 41);border-left-style:none;border-left-width:0px;border-right-color:rgb(33, 37, 41);border-right-style:none;border-right-width:0px;border-top-color:rgb(33, 37, 41);border-top-left-radius:0px;border-top-right-radius:0px;border-top-style:none;border-top-width:0px;bottom:auto;box-shadow:none;box-sizing:border-box;break-after:auto;break-before:auto;break-inside:auto;caption-side:top;clear:none;clip:auto;color:rgb(33, 37, 41);content:normal;cursor:pointer;direction:ltr;display:inline;empty-cells:show;float:none;font-family:Averta, &quot;Helvetica Neue&quot;, &quot;Open Sans&quot;, Arial, sans-serif;font-kerning:auto;font-optical-sizing:auto;font-size:16px;font-stretch:100%;font-style:normal;font-variant:normal;font-variant-ligatures:normal;font-variant-caps:normal;font-variant-numeric:normal;font-variant-east-asian:normal;font-weight:400;height:auto;image-orientation:from-image;image-rendering:auto;isolation:auto;justify-items:normal;justify-self:auto;left:auto;letter-spacing:normal;line-height:24px;list-style-image:none;list-style-position:outside;list-style-type:disc;margin-bottom:0px;margin-left:0px;margin-right:0px;margin-top:0px;max-height:none;max-width:none;min-height:0px;min-width:0px;mix-blend-mode:normal;object-fit:fill;object-position:50% 50%;offset-distance:0px;offset-path:none;offset-rotate:auto 0deg;opacity:1;orphans:2;outline-color:rgb(33, 37, 41);outline-offset:0px;outline-style:none;outline-width:0px;overflow-anchor:auto;overflow-wrap:normal;overflow-x:visible;overflow-y:visible;padding-bottom:0px;padding-left:0px;padding-right:0px;padding-top:0px;pointer-events:auto;position:static;resize:none;right:auto;scroll-behavior:auto;speak:normal;table-layout:auto;tab-size:8;text-align:center;text-align-last:auto;text-decoration:none solid rgb(33, 37, 41);text-decoration-line:none;text-decoration-style:solid;text-decoration-color:rgb(33, 37, 41);text-decoration-skip-ink:auto;text-underline-position:auto;text-indent:0px;text-rendering:auto;text-shadow:none;text-size-adjust:100%;text-overflow:clip;text-transform:none;top:auto;touch-action:auto;transition-delay:0s;transition-duration:0s;transition-property:all;transition-timing-function:ease;unicode-bidi:normal;vertical-align:baseline;visibility:visible;white-space:normal;widows:2;width:auto;will-change:auto;word-break:normal;word-spacing:0px;z-index:auto;zoom:1;-webkit-appearance:none;backface-visibility:visible;-webkit-border-horizontal-spacing:0px;-webkit-border-image:none;-webkit-border-vertical-spacing:0px;-webkit-box-align:stretch;-webkit-box-decoration-break:slice;-webkit-box-direction:normal;-webkit-box-flex:0;-webkit-box-ordinal-group:1;-webkit-box-orient:horizontal;-webkit-box-pack:start;-webkit-box-reflect:none;column-count:auto;column-gap:normal;column-rule-color:rgb(33, 37, 41);column-rule-style:none;column-rule-width:0px;column-span:none;column-width:auto;backdrop-filter:none;align-content:normal;align-items:normal;align-self:auto;flex-basis:auto;flex-grow:0;flex-shrink:1;flex-direction:row;flex-wrap:nowrap;justify-content:normal;-webkit-font-smoothing:antialiased;grid-auto-columns:auto;grid-auto-flow:row;grid-auto-rows:auto;grid-column-end:auto;grid-column-start:auto;grid-template-areas:none;grid-template-columns:none;grid-template-rows:none;grid-row-end:auto;grid-row-start:auto;row-gap:normal;-webkit-highlight:none;hyphens:manual;-webkit-hyphenate-character:auto;-webkit-line-break:auto;-webkit-line-clamp:none;-webkit-locale:&quot;en&quot;;-webkit-mask-box-image:none;-webkit-mask-box-image-outset:0;-webkit-mask-box-image-repeat:stretch;-webkit-mask-box-image-slice:0 fill;-webkit-mask-box-image-source:none;-webkit-mask-box-image-width:auto;-webkit-mask-clip:border-box;-webkit-mask-composite:source-over;-webkit-mask-image:none;-webkit-mask-origin:border-box;-webkit-mask-position:0% 0%;-webkit-mask-repeat:repeat;-webkit-mask-size:auto;order:0;perspective:none;perspective-origin:50% 50%;-webkit-print-color-adjust:economy;-webkit-rtl-ordering:logical;shape-outside:none;shape-image-threshold:0;shape-margin:0px;-webkit-tap-highlight-color:rgba(0, 0, 0, 0);-webkit-text-combine:none;-webkit-text-decorations-in-effect:none;-webkit-text-emphasis-color:rgb(33, 37, 41);-webkit-text-emphasis-position:over right;-webkit-text-emphasis-style:none;-webkit-text-fill-color:rgb(33, 37, 41);-webkit-text-orientation:vertical-right;-webkit-text-security:none;-webkit-text-stroke-color:rgb(33, 37, 41);-webkit-text-stroke-width:0px;transform:none;transform-origin:0px 0px;transform-style:flat;-webkit-user-drag:auto;-webkit-user-modify:read-only;user-select:auto;-webkit-writing-mode:horizontal-tb;-webkit-app-region:none;buffered-rendering:auto;clip-path:none;clip-rule:nonzero;mask:none;filter:none;flood-color:rgb(0, 0, 0);flood-opacity:1;lighting-color:rgb(255, 255, 255);stop-color:rgb(0, 0, 0);stop-opacity:1;color-interpolation:srgb;color-interpolation-filters:linearrgb;color-rendering:auto;fill:rgb(0, 0, 0);fill-opacity:1;fill-rule:nonzero;marker-end:none;marker-mid:none;marker-start:none;mask-type:luminance;shape-rendering:auto;stroke:none;stroke-dasharray:none;stroke-dashoffset:0px;stroke-linecap:butt;stroke-linejoin:miter;stroke-miterlimit:4;stroke-opacity:1;stroke-width:1px;alignment-baseline:auto;baseline-shift:0px;dominant-baseline:auto;text-anchor:start;writing-mode:horizontal-tb;vector-effect:none;paint-order:normal;d:none;cx:0px;cy:0px;x:0px;y:0px;r:0px;rx:auto;ry:auto;caret-color:rgb(33, 37, 41);line-break:auto;">
	bg5</title>
<g>
	<path class="st0" d="M16.4,113c0,0-43.6-38.2,11.4-56.3c27.4-9,33.8-13.6,55.1-31c30.5-24.9,70.4-39.3,122.3,4.6s91.1,57.6,56.9,84
		c-38.4,29.6-15,44.9-19.9,53.2c-1.3,2.2-9.4-7.3-27.3,2.5c-40.7,22.3-61.5-11.6-91.4-3.2c-28.3,8-42.8-9.7-52-2.8
		c-13.7,10.3-22.3,10.1-27.4,7.4c-4.3-2.3-6.8-7-6.6-11.9c0.2-5.6,0.3-16-2-23.7C32.1,124.5,23.8,118.6,16.4,113z"/>
	<path class="st1" d="M16.9,113.4c0,0-44-39,11.5-57.5C56,46.8,62.5,42.1,84,24.2c30.8-25.5,71.1-40.2,123.4,4.7
		s93.2,60.6,57.4,85.8c-24.8,17.4-16.4,8.9-24.1,14.9c-16.4,12.6-53.6-11.1-83.9-2.5c-28.5,8.1-56.3-4-68.6-4.9
		c-4.9-0.3-24.7-0.4-34.7-0.9c-5.6-0.3-11.7,2.2-19.5,0.3C22.4,118.9,24.4,119.2,16.9,113.4z"/>
	<g id="books">
		<path class="st2" d="M64.2,40.9l-14.3,9.6c-0.2,0.1-0.5-1.9-0.7-1.8l-9.7,3.7l-0.1,69.8l60.8-0.7l-0.5-94.6L81.2,27L64.2,40.9z"/>
		<path class="st3" d="M59.5,43.2l-14.9,7.3l0,2l49.6-0.3l-0.2-17.8L72.6,34l-4.8,3.7c-0.8,0.6-1.9,1.3-3.2,2.2
			C62.5,41.2,61.2,42.2,59.5,43.2z"/>
		<polygon class="st3" points="44.6,55.3 44.6,73 94.2,72.9 94.2,55.3 		"/>
		<polygon class="st3" points="44.7,76.1 44.7,93.7 94.3,93.6 94.4,76.1 		"/>
		<polygon class="st3" points="45,97.2 45,114.8 94.6,114.7 94.6,97.2 		"/>
		<polygon class="st4" points="61.9,86.1 64.2,83.1 72.8,90.8 70.7,93.9 		"/>
		<polygon class="st4" points="44.7,79.5 50.3,79.6 50.3,93.8 44.7,93.7 		"/>
		<polygon class="st0" points="56.9,81.9 59.2,80.7 65.1,92.3 62.8,93.9 		"/>
		<polygon class="st4" points="54.2,78 57,78 57,93.8 54.2,93.7 		"/>
		<polygon class="st0" points="50.3,82.8 54.3,82.9 54.2,93.8 50.3,93.7 		"/>
		<polygon class="st4" points="72.1,79.5 77.6,79.5 77.7,93.7 72.1,93.6 		"/>
		<polygon class="st4" points="81.6,78 84.3,78 84.4,93.8 81.6,93.7 		"/>
		<polygon class="st0" points="77.7,82.8 81.7,82.8 81.6,93.7 77.6,93.7 		"/>
		<polygon class="st4" points="45,98.6 49.3,98.7 49.3,114.9 45,114.9 		"/>
		<polygon class="st0" points="49.3,101.1 52.2,101.1 52.1,114.9 49.2,114.9 		"/>
		<polygon class="st4" points="52.2,103.9 56.1,104 56,114.9 52.1,114.8 		"/>
		<polygon class="st0" points="76.3,50 76.3,52.1 92.2,52.2 92.2,50 		"/>
		<polygon class="st4" points="76.3,48.4 76.3,50.1 86.7,50.1 86.6,48.4 		"/>
		<polygon class="st4" points="44.6,58.8 50.2,58.8 50.2,73 44.6,72.9 		"/>
		<polygon class="st0" points="88.2,61 85.9,59.7 79.8,71.4 82.2,72.9 		"/>
		<polygon class="st4" points="91.6,57.1 94.3,57.1 94.3,72.9 91.6,72.8 		"/>
		<polygon class="st0" points="87.8,62 91.8,62 91.7,72.9 87.8,72.9 		"/>
		<polygon class="st0" points="61.1,70.9 61.1,72.9 77,73 77,70.9 		"/>
		<polygon class="st4" points="63.6,69.2 63.7,70.9 74,70.9 73.9,69.2 		"/>
	</g>
	<g id="flower">
		<path class="st0" d="M214.3,142.5c0,0-4.8,5.6-0.9,5.8c3.9,0.1,11.9,4.7,13.5,0.6c1.5-4.1,4.6-6.1,2.7-6.6s-3.6-2.4-7.5-2
			C218.2,140.6,214.3,142.5,214.3,142.5z"/>
		<path class="st5" d="M213.1,115.1c0,0-2.2,0.2-2.2,3c0,2.8,1.4,26.8,6.9,27.2c3.5,0.3,7.3,0.3,9.2,0.1c0.8-0.1,1.6-2.5,1.7-3.5
			c0.7-4.8,1.6-16.4,1.8-23.1c0-1.4-0.9-3.2-1.4-3.7C226.3,112.7,213.1,115.1,213.1,115.1z"/>
		<path class="st2" d="M239.5,68.7c-0.9-0.8-2.1,0.3-1.6,1.4c0.4,1.1,0.7,3-1,5c-2.7,3.1-12.4,13.7-12.3,20.5c0.1,6.8-2,8.7,0,11.3
			c2,2.6,10.1,2.5,12.2-3s7.5-7.7,7.4-15.6s-1-11.3-2-14C241.6,72.5,240.6,69.7,239.5,68.7z"/>
		<path class="st6" d="M224.7,114.1c0,0,0.9-12.3,10.5-17.7c6-3.4,6.4-15,5-17.7"/>
		<path class="st7" d="M226,119.2c0,0,3,12.1-0.3,21.8"/>
		<path class="st7" d="M232.9,66c-0.9-0.8-2.2,0.3-1.7,1.4c0.5,1,0.8,2.8-1.1,4.8c-2.9,3-13.3,13.1-13.2,19.6
			c0.1,6.5,0,10.3,2.2,12.8c2.2,2.5,7.2,0.5,9.5-4.8c2.3-5.3,9.5-7.5,9.4-15.1c-0.1-7.5-1.1-10.8-2.2-13.4
			C235.1,69.6,234.1,67,232.9,66z"/>
		<path class="st6" d="M220.7,114.3c0,0-3.4-16.8,4.9-26.8c3.3-4,8.2-12.1,8.2-16"/>
		<path class="st2" d="M207.2,68.7c0.8-0.8,2,0.3,1.6,1.4c-0.4,1.1-0.7,3,1,5c2.7,3.1,12.3,13.7,12.2,20.5c-0.1,6.8,0,10.8-2,13.4
			s-6.6,0.5-8.7-5c-2.1-5.5-8.8-7.8-8.7-15.7s1-11.3,2-14C205.1,72.5,206,69.7,207.2,68.7z"/>
		<path class="st6" d="M218,114.6c0,0,3.9-15.2-3.8-25.3c-3-4-8-10-7.9-13.9"/>
		<path class="st3" d="M201,95.2c0,0-8,0.2-12.3-9.5c-4.3-9.7,5.4-11.7,12.5-6.5c7.1,5.2,4.2,7.4,12.7,12.2c8.5,4.8,6.7,14.3,4,16.8
			c-2.6,2.5-7.6,6.5-11-3.8S201,95.2,201,95.2z"/>
		<path class="st6" d="M216.5,114.7c0,0,0.6-24.3-23.5-30.9"/>
		<path class="st7" d="M213.1,115.1c0,0,9.8-1.6,13.6-0.7c3.8,0.8-6.8,1.8-6.8,1.8S214.9,116.4,213.1,115.1z"/>
	</g>
	<path class="st7" d="M94.2,117.6c0,0-11-8.7-12.9-17.2c-1.9-8.5,2.2-14.5,8.1-15.4s9.5-3.7,30.2,3.3s44.5-5.4,44.5-5.4
		s19.4-8.9,29-6.8c10.9,2.5,13.3,9.1,10.3,20.9s-13,20.8-13,20.8L94.2,117.6z"/>
	<path class="st7" d="M89.2,116.7c0,0-1.7,0-2,1.7c-0.3,1.7,0.3,7.2,1.1,8.9s4.9,1.6,4.9,1.6l98.6-0.2c0,0,3.3,0,4-2.6
		c0.6-2.1,1.5-4.2,1.6-5.7c0.1-1.7-1.1-3.2-2.8-3.4c-1.1-0.1-2.2-0.2-3.2-0.2C183.8,116.9,89.2,116.7,89.2,116.7z"/>
	<polygon class="st4" points="84.6,143.4 91.2,129.1 96.4,129.1 89.5,143.4 	"/>
	<polygon class="st4" points="186.4,129.1 192.4,143.7 196.7,143.4 191,129.1 	"/>
	<path class="st3" d="M95.9,116.9c0,0-9.1-7-9.5-9.9c-0.5-3.8,2.9-9.4,16.2-6.9s36.7,9.3,49.4,5.8c12.7-3.4,28.7-17.9,29.8-18.7
		c1.1-0.8,14.7-7.4,17.8,2.7c3.1,10.2-9.3,26.9-9.3,26.9L95.9,116.9z"/>
	<polygon class="st7" points="140.1,0 140.5,19.5 140.9,19.4 141.3,0 	"/>
	<path class="st7" d="M130.2,35.4c0,0-3.6-16.2,10.7-16.4c13.6-0.1,10.1,17.2,10.1,17.2L130.2,35.4z"/>
	<path class="st4" d="M130.1,35.4c0,0,11.5-5,21,0.8C151.1,36.2,141.1,41.4,130.1,35.4z"/>
	<path class="st4" d="M135.7,21.9c0,0-5,1.9-4,10.4"/>
	
		<linearGradient id="SVGID_1_" gradientUnits="userSpaceOnUse" x1="1123.9824" y1="582.063" x2="1124.2825" y2="803.823" gradientTransform="matrix(0.2874 0 0 0.2874 -182.4108 -151.6153)">
		<stop  offset="0" style="stop-color:#FFFFFF"/>
		<stop  offset="1" style="stop-color:#FFFFFF;stop-opacity:0"/>
	</linearGradient>
	<polygon class="st8" points="130.1,35.4 119.9,72 161.5,71.6 151.1,36.2 	"/>
</g>
<g>
	<g id="woman">
		<g>
			<path class="st9" d="M151.5,119.7c-0.8-1.4-1.5-1.7-3.5-1.8c-2-0.1-4.7,0-4.7,0l0,2.9c0,0,2.2,1.3,3.4,2c0.1,0,0.3,0.1,0.4,0.2
				c0.2,0.1,0.4,0.2,0.7,0.2c1.2,0.3,2.3,0.1,3-0.6C151.6,121.7,152.4,121.1,151.5,119.7z"/>
			<path class="st9" d="M136.2,117.1c-0.1,0.1-0.3,0.2-0.4,0.3c-0.2,0.1-0.3,0.3-0.5,0.5c-0.7,1-1,2-0.5,3c0.5,1.1,0.8,2,2.4,1.8
				c1.6-0.3,2.2-0.7,3-2.6c0.8-1.8,1.8-4.4,1.8-4.4l-2.7-1.1C139.2,114.7,137.2,116.3,136.2,117.1z"/>
		</g>
		
			<linearGradient id="SVGID_2_" gradientUnits="userSpaceOnUse" x1="1912.5918" y1="1923.3759" x2="1760.1375" y2="1923.3759" gradientTransform="matrix(0.2874 0 0 0.2874 -385.7629 -438.1789)">
			<stop  offset="0" style="stop-color:#4B45BD"/>
			<stop  offset="1" style="stop-color:#58CAEA"/>
		</linearGradient>
		<path class="st10" d="M143.5,118c0,0,0,2.9-0.4,3c-0.5,0.1-7-0.9-9.7-1c-2.6-0.1-8.5-1.8-11.4-5.1c-2.5-2.8-2.1-6-0.3-6
			c1.9,0,3.6-1.6,8.3,0.7c4.7,2.2,9.7,2.6,12.5,2.4c2.8-0.2,10.7-1.7,11.3-2.1c0.6-0.5,3.6-1.7,7.7-1.3c4.1,0.4,2.2,3.7,1.3,5
			c-1.2,1.8-4.1,3.6-6.5,3.7C153.8,117.3,143.5,118,143.5,118z"/>
		
			<linearGradient id="SVGID_3_" gradientUnits="userSpaceOnUse" x1="1104.2465" y1="-766.6055" x2="1189.3468" y2="-766.6055" gradientTransform="matrix(0.2874 0 0 -0.2874 -182.4108 -136.6689)">
			<stop  offset="0" style="stop-color:#F87B58"/>
			<stop  offset="0.5" style="stop-color:#F8C548"/>
			<stop  offset="1" style="stop-color:#F89C51"/>
		</linearGradient>
		<path class="st11" d="M138.6,66.9c-1.4,0.5-3.1,7.4-3.1,7.4l0,0l-0.2,0.9l-0.2,1.2l0.5,7.4l4.5,2.2l10.3,2.8l2.8,4.1
			c0,0,6.4,6.5,6.4,6.9c0,0.5-6.8,2.7-7.5,2.8c-1.6,0.2,10.1-2.6,6.4-7.2c-1.6-2-3.9-7.8-8.6-11.7c-2.7-2.2-1.9-8.6-2.9-12.6
			c-1.2-5-1.9-6.6-3.1-6.6C142.7,64.7,141.2,65.9,138.6,66.9"/>
		
			<linearGradient id="SVGID_4_" gradientUnits="userSpaceOnUse" x1="1068.1383" y1="1186.1909" x2="1197.6473" y2="1186.1909" gradientTransform="matrix(0.2874 0 0 0.2874 -182.4108 -245.8929)">
			<stop  offset="0" style="stop-color:#4B45BD"/>
			<stop  offset="1" style="stop-color:#58CAEA"/>
		</linearGradient>
		<path class="st12" d="M153.1,83.2c-2.2-2-2.9-2.4-4.8-1.8c-1.9,0.7-2.8,1.3-5.4,1.7c-1.6,0.3-3.2,0.1-4.7-0.6L133,83
			c-0.7-0.1-8.2,14.1-8.4,17c-0.1,1.8,4,4.6,5.1,4.9c0.5,0.1,1.3-4.3,1.6-4.7l-1.7-0.5c0.3-0.8,1.4-2.7,2-3.7c0.2-0.3,1.8-3,2.1-4.1
			c0,0.1,0.3,2,0.5,2.7c0.4,1.1,1,1.8,1,2.7s-0.1,4.6-0.8,6.2c-0.7,1.6-1.6,5.5-1.6,5.5l16.9-0.1c0,0-0.6-7.3-0.4-9.8
			c0,0-0.3-1,0.2-2.5c0.8-2.4,1.1-6,0.9-6.6c-0.2-0.9,5,6.6,6.1,8.5c0.5,0.8-6,2.2-6.5,2.8c-0.5,0.6,0.5,2.3,0.5,2.3
			s11.2-1.4,11.2-3.1C161.8,98.9,155.6,85.5,153.1,83.2z"/>
		
			<linearGradient id="SVGID_5_" gradientUnits="userSpaceOnUse" x1="1094.0667" y1="1131.3425" x2="1166.97" y2="1131.3425" gradientTransform="matrix(0.2874 0 0 0.2874 -182.4108 -245.8929)">
			<stop  offset="0" style="stop-color:#F8C547"/>
			<stop  offset="1" style="stop-color:#F71D69"/>
		</linearGradient>
		<path class="st13" d="M139.9,62.9c0,0-3.1,0.1-4.1,3.4c-0.9,3.3-1,7.9-1.1,8.6c0,0.7,0.3,5.2-1.4,7c-1.5,1.6-0.9,3.1-1.2,4.4
			l-0.2,2.1c0,0.3,0.2,0.5,0.5,0.5c0.2,0.1,1-0.3,1.1-0.3c2-0.8,2-1.4,2.7-2c0.6-0.5,2.3-1.7,2.8-2.2c0.5-0.5,0.9-0.9,0.9-1.5
			c0.1-3-0.4-5.9-1.1-7.4c-0.7-1.5-2-4-0.9-5.7c1.1-1.7,3-3.4,3.1-3.8c0.1-0.4,0.2,1.6,1.4,2.3c1.2,0.7,2.2,1.7,2.6,2.7
			c0.3,0.8,0.7,2.2-0.4,4.6c-1.1,2.4-2,5.5-0.5,7.7s4.9,4.7,5.5,5.9c0.6,1.3,0,4.3-0.1,6.1c-0.1,1.8,3.5-3.1,3.4-5.5
			c-0.1-2.4,0.3-3.4-2-7s-3.7-9.8-3.8-11.3s-0.7-5.6-2.1-6.8c-1.2-1-1.4-2-3.8-2C140.9,62.8,140.4,62.8,139.9,62.9"/>
		<path class="st14" d="M132.8,112.9l15.9,0.1c0,0-1.9,1.5-2.8,1.6c-0.9,0.1-4.7,2.1-6.2,1.4C138.7,115.4,132.8,112.9,132.8,112.9z"
			/>
		<path class="st14" d="M141.6,77.2c0,0,1.5,0.4,2.1-0.5c1.4-2,0.1,1,0.1,1s-0.4,1.1-0.4,1.7C143.5,80,141.9,77.3,141.6,77.2"/>
		<path class="st14" d="M135.7,87.3c-0.2,0.2-0.5,0.4-0.6,1c-0.2,0.9-0.5,2-1.1,2.9c-0.4,0.5-0.2,2.7,0.5,4.1
			c0.2,0.4,0.7,1.4,0.7,1.6l0,2h1.7c0,0,1.5,0.1,1.1-1c-0.3-1.1-1.6-5-0.7-5.9c1.8-1.6-0.5-4.8,0.4-5.9c0.7-0.9,1.7-1.5,1.7-1.8
			c0-0.1-0.3,0.3-0.5,0.4c-0.3,0.3-0.5,0.5-0.8,0.6c-0.3,0.2-0.8,0.5-1.1,0.8C136.5,86.4,136.1,86.8,135.7,87.3z"/>
	</g>
	<g id="laptop">
		<path class="st4" d="M129.1,100c0,0,0-1,1-1.1c1,0,22.6,0,22.6,0s0.9,0.1,1,0.9c0,0.8,0,12.2,0,12.2s0,0.9-0.9,0.9
			c-0.9,0-23,0-23,0s-0.8-0.2-0.8-1C129,111.1,129.1,100,129.1,100z"/>
		<circle class="st15" cx="141.4" cy="105.9" r="0.9"/>
	</g>
</g>
</svg>
