<?xml version="1.0" encoding="utf-8"?>
<!-- Generator: Adobe Illustrator 22.0.1, SVG Export Plug-In . SVG Version: 6.00 Build 0)  -->
<svg version="1.1" id="Layer_1" xmlns="http://www.w3.org/2000/svg" xmlns:xlink="http://www.w3.org/1999/xlink" x="0px" y="0px"
	 viewBox="0 0 792 612" style="enable-background:new 0 0 792 612;" xml:space="preserve">
<style type="text/css">
	.st0{fill:#E9EDF7;}
	.st1{fill:#B3BFE2;}
	.st2{fill:#FFFFFF;}
	.st3{fill:#F6F6FB;}
</style>
<g id="books">
	<path class="st0" d="M398.4,193.6L355.6,234c-0.6,0.4-1.5-8-2.1-7.6L324.4,242l-0.3,293.7l182.2-2.9l-1.5-398.1l-55.5,0.4
		L398.4,193.6z"/>
	<path class="st1" d="M384.3,203.2L339.7,234v8.4l148.7-1.3l-0.6-74.9l-64.1-1.7l-14.4,15.6c-2.4,2.5-5.7,5.5-9.6,9.3
		C393.3,194.8,389.4,199,384.3,203.2z"/>
	<polygon class="st1" points="339.7,254.2 339.7,328.6 488.3,328.2 488.3,254.2 	"/>
	<polygon class="st1" points="340,341.7 340,415.7 488.6,415.3 488.9,341.7 	"/>
	<polygon class="st1" points="340.9,430.5 340.9,504.5 489.5,504.1 489.5,430.5 	"/>
	<polygon class="st2" points="391.5,383.8 398.4,371.1 424.2,403.5 417.9,416.6 	"/>
	<polygon class="st2" points="340,356 356.8,356.4 356.8,416.2 340,415.7 	"/>
	<polygon class="st3" points="376.5,366.1 383.4,361 401.1,409.9 394.2,416.6 	"/>
	<polygon class="st2" points="368.4,349.7 376.8,349.7 376.8,416.2 368.4,415.7 	"/>
	<polygon class="st3" points="356.8,369.9 368.7,370.3 368.4,416.2 356.8,415.7 	"/>
	<polygon class="st2" points="422.1,356 438.6,356 438.9,415.7 422.1,415.3 	"/>
	<polygon class="st2" points="450.6,349.7 458.7,349.7 459,416.2 450.6,415.7 	"/>
	<polygon class="st3" points="438.9,369.9 450.9,369.9 450.6,415.7 438.6,415.7 	"/>
	<polygon class="st2" points="340.9,436.4 353.8,436.8 353.8,504.9 340.9,504.9 	"/>
	<polygon class="st3" points="353.8,446.9 362.5,446.9 362.2,504.9 353.5,504.9 	"/>
	<polygon class="st2" points="362.5,458.7 374.1,459.1 373.8,504.9 362.2,504.5 	"/>
	<polygon class="st3" points="434.7,231.9 434.7,240.7 482.4,241.1 482.4,231.9 	"/>
	<polygon class="st2" points="434.7,225.1 434.7,232.3 465.9,232.3 465.6,225.1 	"/>
	<polygon class="st2" points="339.7,268.9 356.5,268.9 356.5,328.6 339.7,328.2 	"/>
	<polygon class="st3" points="470.4,278.1 463.5,272.7 445.2,321.9 452.4,328.2 	"/>
	<polygon class="st2" points="480.6,261.7 488.6,261.7 488.6,328.2 480.6,327.8 	"/>
	<polygon class="st3" points="469.2,282.4 481.2,282.4 480.9,328.2 469.2,328.2 	"/>
	<polygon class="st3" points="389.1,319.8 389.1,328.2 436.8,328.6 436.8,319.8 	"/>
	<polygon class="st2" points="396.6,312.6 396.9,319.8 427.8,319.8 427.5,312.6 	"/>
</g>
</svg>
