<?xml version="1.0" encoding="utf-8"?>
<!-- Generator: Adobe Illustrator 22.0.1, SVG Export Plug-In . SVG Version: 6.00 Build 0)  -->
<svg version="1.1" id="Layer_1" xmlns="http://www.w3.org/2000/svg" xmlns:xlink="http://www.w3.org/1999/xlink" x="0px" y="0px"
	 viewBox="0 0 792 612" style="enable-background:new 0 0 792 612;" xml:space="preserve">
<style type="text/css">
	.st0{fill:#F6F6FB;}
</style>
<path class="st0" d="M166.7,337.2c0,0-82.6-74.2,21.6-109.4c51.9-17.5,64-26.4,104.3-60.2c57.8-48.4,133.3-76.4,231.6,8.9
	S696.8,288.5,632,339.8c-72.7,57.5-28.4,87.2-37.7,103.4c-2.5,4.3-17.8-14.2-51.7,4.9c-77.1,43.3-116.5-22.5-173.1-6.2
	c-53.6,15.5-81.1-18.8-98.5-5.4c-25.9,20-42.2,19.6-51.9,14.4c-8.1-4.5-12.9-13.6-12.5-23.1c0.4-10.9,0.6-31.1-3.8-46
	C196.4,359.6,180.7,348.1,166.7,337.2z"/>
</svg>
