<?xml version="1.0" encoding="utf-8"?>
<!-- Generator: Adobe Illustrator 22.0.1, SVG Export Plug-In . SVG Version: 6.00 Build 0)  -->
<svg version="1.1" id="Layer_1" xmlns="http://www.w3.org/2000/svg" xmlns:xlink="http://www.w3.org/1999/xlink" x="0px" y="0px"
	 viewBox="0 0 792 612" style="enable-background:new 0 0 792 612;" xml:space="preserve">
<style type="text/css">
	.st0{fill:#F6F6FB;}
	.st1{fill:#E1E5F4;}
	.st2{fill:#E9EDF7;}
	.st3{fill:none;stroke:#FFFFFF;stroke-width:3;stroke-linecap:round;stroke-linejoin:round;}
	.st4{fill:#BDC4E4;}
	.st5{fill:#B3BFE2;}
</style>
<g id="flower">
	<path class="st0" d="M418.5,404.6c0,0-13.1,19.6-2.5,20.3c10.7,0.4,32.6,16.5,37,2.1c4.1-14.4,12.6-21.4,7.4-23.1
		c-5.2-1.8-9.9-8.4-20.5-7C429.2,397.9,418.5,404.6,418.5,404.6z"/>
	<path class="st1" d="M415.2,308.5c0,0-6,0.7-6,10.5s3.8,94,18.9,95.4c9.6,1.1,20,1.1,25.2,0.4c2.2-0.4,4.4-8.8,4.7-12.3
		c1.9-16.8,4.4-57.5,4.9-81c0-4.9-2.5-11.2-3.8-13C451.3,300.1,415.2,308.5,415.2,308.5z"/>
	<path class="st2" d="M487.5,145.8c-2.5-2.8-5.7,1.1-4.4,4.9c1.1,3.9,1.9,10.5-2.7,17.5c-7.4,10.9-33.9,48.1-33.7,71.9
		c0.3,23.8-5.5,30.5,0,39.6c5.5,9.1,27.6,8.8,33.4-10.5c5.7-19.3,20.5-27,20.3-54.7s-2.7-39.6-5.5-49.1
		C493.2,159.1,490.5,149.3,487.5,145.8z"/>
	<path class="st3" d="M447,305c0,0,2.5-43.1,28.7-62.1c16.4-11.9,17.5-52.6,13.7-62.1"/>
	<path class="st4" d="M450.5,322.9c0,0,8.2,42.4-0.8,76.5"/>
	<path class="st4" d="M469.4,136.3c-2.5-2.8-6,1.1-4.7,4.9c1.4,3.5,2.2,9.8-3,16.8c-7.9,10.5-36.4,45.9-36.1,68.7s0,36.1,6,44.9
		s19.7,1.8,26-16.8c6.3-18.6,26-26.3,25.7-53c-0.3-26.3-3-37.9-6-47C475.4,148.9,472.7,139.8,469.4,136.3z"/>
	<path class="st3" d="M436,305.7c0,0-9.3-58.9,13.4-94c9-14,22.4-42.4,22.4-56.1"/>
	<path class="st2" d="M399.1,145.8c2.2-2.8,5.5,1.1,4.4,4.9c-1.1,3.9-1.9,10.5,2.7,17.5c7.4,10.9,33.7,48.1,33.4,71.9
		c-0.3,23.8,0,37.9-5.5,47c-5.5,9.1-18.1,1.8-23.8-17.5c-5.7-19.3-24.1-27.4-23.8-55.1c0.3-27.7,2.7-39.6,5.5-49.1
		C393.3,159.1,395.8,149.3,399.1,145.8z"/>
	<path class="st3" d="M428.6,306.7c0,0,10.7-53.3-10.4-88.7c-8.2-14-21.9-35.1-21.6-48.8"/>
	<path class="st5" d="M382.1,238.7c0,0-21.9,0.7-33.7-33.3s14.8-41,34.2-22.8c19.4,18.2,11.5,26,34.8,42.8
		c23.3,16.8,18.3,50.2,10.9,58.9c-7.1,8.8-20.8,22.8-30.1-13.3C388.9,234.8,382.1,238.7,382.1,238.7z"/>
	<path class="st3" d="M424.5,307.1c0,0,1.6-85.2-64.3-108.4"/>
	<path class="st4" d="M415.2,308.5c0,0,26.8-5.6,37.2-2.5c10.4,2.8-18.6,6.3-18.6,6.3S420.1,313.1,415.2,308.5z"/>
</g>
</svg>
