<?xml version="1.0" encoding="utf-8"?>
<!-- Generator: Adobe Illustrator 22.0.1, SVG Export Plug-In . SVG Version: 6.00 Build 0)  -->
<svg version="1.1" id="Layer_1" xmlns="http://www.w3.org/2000/svg" xmlns:xlink="http://www.w3.org/1999/xlink" x="0px" y="0px"
	 viewBox="0 0 792 612" style="enable-background:new 0 0 792 612;" xml:space="preserve">
<style type="text/css">
	.st0{fill:#BDC4E4;}
	.st1{fill:#FFFFFF;}
	.st2{fill:#B3BFE2;}
</style>
<path class="st0" d="M340,305.5c0,0-18.3-21.8-21.5-43.2s3.7-36.4,13.5-38.7c9.8-2.3,15.8-9.3,50.2,8.3s74-13.6,74-13.6
	s32.3-22.3,48.3-17.1c18.1,6.3,22.1,22.8,17.1,52.5c-5,29.6-21.6,52.2-21.6,52.2L340,305.5z"/>
<path class="st0" d="M331.7,303.2c0,0-2.8,0-3.3,4.3c-0.5,4.3,0.5,18.1,1.8,22.3s8.2,4,8.2,4l164.1-0.5c0,0,5.5,0,6.7-6.5
	c1-5.3,2.5-10.5,2.7-14.3c0.2-4.3-1.8-8-4.7-8.5c-1.8-0.3-3.7-0.5-5.3-0.5C489.1,303.7,331.7,303.2,331.7,303.2z"/>
<polygon class="st1" points="324,370.2 335,334.3 343.7,334.3 332.2,370.2 "/>
<polygon class="st1" points="493.4,334.3 503.4,371 510.5,370.2 501.1,334.3 "/>
<path class="st2" d="M342.8,303.7c0,0-15.1-17.6-15.8-24.9c-0.8-9.5,4.8-23.6,27-17.3c22.1,6.3,61.1,23.3,82.2,14.6
	c21.1-8.5,47.8-44.9,49.6-46.9c1.8-2,24.5-18.6,29.6,6.8c5.2,25.6-15.5,67.5-15.5,67.5L342.8,303.7z"/>
</svg>
