<?xml version="1.0" encoding="utf-8"?>
<!-- Generator: Adobe Illustrator 22.0.1, SVG Export Plug-In . SVG Version: 6.00 Build 0)  -->
<svg version="1.1" id="Layer_1" xmlns="http://www.w3.org/2000/svg" xmlns:xlink="http://www.w3.org/1999/xlink" x="0px" y="0px"
	 viewBox="0 0 792 612" style="enable-background:new 0 0 792 612;" xml:space="preserve">
<style type="text/css">
	.st0{fill:#BDC4E4;}
	.st1{fill:#FFFFFF;}
	.st2{fill:url(#SVGID_1_);}
</style>
<polygon class="st0" points="420.3,178.3 421.2,236.1 422.2,235.8 423.1,178.3 "/>
<path class="st0" d="M397.8,283.2c0,0-8.2-48,24.3-48.6c30.9-0.3,23,51,23,51L397.8,283.2z"/>
<path class="st1" d="M397.6,283.2c0,0,26.2-14.8,47.8,2.4C445.4,285.6,422.6,301,397.6,283.2z"/>
<path class="st1" d="M410.3,243.2c0,0-11.4,5.6-9.1,30.8"/>
<linearGradient id="SVGID_1_" gradientUnits="userSpaceOnUse" x1="2098.7236" y1="-693.1303" x2="2099.6128" y2="-1350.2546" gradientTransform="matrix(0.2874 0 0 -0.2874 -181.6982 25.5609)">
	<stop  offset="0" style="stop-color:#FFFFFF"/>
	<stop  offset="1" style="stop-color:#FFFFFF;stop-opacity:0"/>
</linearGradient>
<polygon class="st2" points="397.6,283.2 374.4,391.7 469,390.5 445.4,285.6 "/>
</svg>
