<?xml version="1.0" encoding="utf-8"?>
<!-- Generator: Adobe Illustrator 19.2.1, SVG Export Plug-In . SVG Version: 6.00 Build 0)  -->
<svg version="1.1" id="Layer_1" xmlns="http://www.w3.org/2000/svg" xmlns:xlink="http://www.w3.org/1999/xlink" x="0px" y="0px"
	 viewBox="0 0 595.3 841.9" style="enable-background:new 0 0 595.3 841.9;" xml:space="preserve">
<style type="text/css">
	.st0{opacity:0.1;fill:#45AAE0;enable-background:new    ;}
	.st1{fill:#E6E6E5;}
	.st2{fill:#403E56;}
	.st3{fill:#45AAE0;}
</style>
<path class="st0" d="M266.3,100.3l-0.1-0.7l-12.6-6.7h-2l-0.8-1.4h-25.9l-6,1.4h-22.1l-6,7l-0.1,0.4c-0.4,2.5-9.1,61.3,13.8,80.1
	l9.5,4.4h6.2l-1.2-2.4l5.4,2.4h17.4l0.3-0.5l10.3-3.9l0.3-0.3C253.6,179.1,275.5,152.5,266.3,100.3z"/>
<rect x="224.9" y="158.8" class="st1" width="10.2" height="26.6"/>
<rect x="220.3" y="219.6" class="st2" width="18.4" height="510.7"/>
<rect x="215.7" y="210.9" class="st2" width="27.6" height="17.4"/>
<polygon class="st2" points="205.5,179.2 222.9,197.6 215.7,210.9 230,214 243.3,210.9 235.1,196.6 251.5,179.2 "/>
<path class="st2" d="M192.2,100.6l-8.2-8.2l6.1-6.1h77.6l6.1,7.1l-9.2,7.1C264.7,100.6,215.7,98.6,192.2,100.6z"/>
<path class="st2" d="M266.3,100.3l-0.1-0.7l-12.6-6.7l-5.7-3l-32.2-2.1L197.6,92l-0.7,0.9l-6,7l-0.1,0.4
	c-0.4,2.5-9.1,61.3,13.8,80.1l9.5,4.4l8,3.7l-1.9-3.7l-3.1-6.1c-3.2-18.6-10.2-67.5-5.7-77.7l18.5-6l16.4,6.1
	c1.1,7.3,8.5,58.8-4.4,77.2l-0.3,0.4v5.8l10.6-4l0.3-0.3C253.6,179.1,275.5,152.5,266.3,100.3z M250.5,178l-5.7,2.1v-0.4
	c14.1-21,4.9-77.5,4.5-79.9l-0.1-0.9l-16.1-6l-3-1.1l-3.5,1.1l-17.3,5.6L209,99c-6.6,11.8,4.7,77.7,5.2,80.5v0.2l1.2,2.4l-9.1-4.2
	c-20.4-17-13.4-71.3-12.6-76.7l5.5-6.4l8-1.9l8.6-2l14.2,0.9l16.9,1.1l0,0l16.4,8.7C271.5,148.9,252.9,174.9,250.5,178L250.5,178z"
	/>
<ellipse class="st2" cx="230" cy="86.3" rx="27.6" ry="14.3"/>
<path class="st2" d="M215.7,704.2l-16.3,52.1c0,0,25.5,14.3,60.3,0l-16.3-52.1H215.7z"/>
<circle class="st3" cx="230" cy="153.7" r="8.2"/>
</svg>
