<?xml version="1.0" encoding="utf-8"?>
<!-- Generator: Adobe Illustrator 19.2.1, SVG Export Plug-In . SVG Version: 6.00 Build 0)  -->
<svg version="1.1" id="Layer_1" xmlns="http://www.w3.org/2000/svg" xmlns:xlink="http://www.w3.org/1999/xlink" x="0px" y="0px"
	 viewBox="0 0 649.4 802" style="enable-background:new 0 0 649.4 802;" xml:space="preserve">
<style type="text/css">
	.st0{fill:#403E56;}
	.st1{fill:#E6E6E5;}
</style>
<path class="st0" d="M613.9,420.7h-16.8v-93.1c0-5.3-4.3-9.6-9.6-9.6h-28.8v-82c0-5.3-4.3-9.6-9.6-9.6H100.7c-5.3,0-9.6,4.3-9.6,9.6
	v82H62.3c-5.3,0-9.6,4.3-9.6,9.6v93.1H35.9c-5.3,0-9.6,4.3-9.6,9.6V568c0,5.3,4.3,9.6,9.6,9.6h578c5.3,0,9.6-4.3,9.6-9.6V430.3
	C623.5,425,619.2,420.7,613.9,420.7z"/>
<rect x="52.7" y="420.7" class="st1" width="544.4" height="9.6"/>
<rect x="91.1" y="318.2" class="st1" width="467.5" height="9.6"/>
</svg>
