<?xml version="1.0" encoding="utf-8"?>
<!-- Generator: Adobe Illustrator 19.2.1, SVG Export Plug-In . SVG Version: 6.00 Build 0)  -->
<svg version="1.1" id="Layer_1" xmlns="http://www.w3.org/2000/svg" xmlns:xlink="http://www.w3.org/1999/xlink" x="0px" y="0px"
	 viewBox="0 0 641.3 866.9" style="enable-background:new 0 0 641.3 866.9;" xml:space="preserve">
<style type="text/css">
	.st0{fill:none;stroke:#403E56;stroke-width:2;stroke-miterlimit:10;}
	.st1{fill:#45AAE0;}
	.st2{fill:#403E56;}
</style>
<g>
	<path class="st0" d="M282.4,461.8L282.4,461.8c0-77.8,63.1-140.9,140.9-140.9l0,0"/>
	<path class="st1" d="M333.6,480.2c-11.3,41.7-49.9,67.6-49.9,67.6s-20.4-41.8-9.1-83.5s49.9-67.6,49.9-67.6
		S344.9,438.5,333.6,480.2z"/>
	<path class="st1" d="M231,480.2c11.3,41.7,49.9,67.6,49.9,67.6s20.4-41.8,9.1-83.5s-50-67.6-50-67.6S219.7,438.5,231,480.2z"/>
	<path class="st2" d="M247.6,471.3c31,30.1,34.8,76.5,34.8,76.5s-46.4-2.5-77.4-32.7s-34.8-76.5-34.8-76.5S216.6,441.1,247.6,471.3z
		"/>
	<path class="st2" d="M317.1,471.3c-31,30.1-34.8,76.5-34.8,76.5s46.4-2.5,77.4-32.7s34.8-76.5,34.8-76.5S348,441.1,317.1,471.3z"/>
	<path class="st1" d="M400.5,351c5-18.5,22.1-29.9,22.1-29.9s9,18.5,4,37S404.5,388,404.5,388S395.5,369.5,400.5,351z"/>
	<path class="st1" d="M446,351c-5-18.5-22.1-29.9-22.1-29.9s-9,18.5-4,37S442,388,442,388S451,369.5,446,351z"/>
	<path class="st2" d="M438.6,355c-13.7-13.4-15.4-33.9-15.4-33.9s20.6,1.1,34.3,14.5s15.4,33.9,15.4,33.9S452.3,368.4,438.6,355z"/>
	<path class="st2" d="M407.8,355c13.7-13.4,15.4-33.9,15.4-33.9s-20.6,1.1-34.3,14.5s-15.4,33.9-15.4,33.9S394.1,368.4,407.8,355z"
		/>
	<circle class="st1" cx="423.3" cy="395.4" r="9.6"/>
</g>
</svg>
