<?xml version="1.0" encoding="utf-8"?>
<!-- Generator: Adobe Illustrator 19.2.1, SVG Export Plug-In . SVG Version: 6.00 Build 0)  -->
<svg version="1.1" id="Layer_1" xmlns="http://www.w3.org/2000/svg" xmlns:xlink="http://www.w3.org/1999/xlink" x="0px" y="0px"
	 viewBox="0 0 595.3 841.9" style="enable-background:new 0 0 595.3 841.9;" xml:space="preserve">
<style type="text/css">
	.st0{fill:#403E56;}
</style>
<path class="st0" d="M262.8,728c0,0,32.9-124.4,14.8-201s-32.5-73.6-32.5-73.6s-24.5-9-54.8,17.3c-30.4,26.3-38.4,34.1-55.7,23.3
	s-20.7-27.5-62.9-25.7c0,0,22.4-17.3,44.3-1.8c21.9,15.6,36.7,23.9,59.1,0c22.4-23.9,53.2-55,83.1-36.5c0,0-21.9-30.5-29.1-30.5
	s-40.9-4.8-51.9-20.9c0,0-15.6-15.6-43.5,22.7c-27.8,38.3-21.1,38.3-46,35.3s-44.3-20.3-44.3-20.3s29.1,16.7,46.8,8.4
	c17.7-8.4,32.9-40.1,48.5-50.8c15.6-10.8,24.9-25.1,46-9.6c0,0-8.9-51.4-25.7-47.3c-16.9,4.2,8-12,8-12s-4.6-87.3-13.5-93.3
	s-3.4-21.5-19.8-24.5c0,0,20.3-3.6,24,16.2c3.8,19.7,30,126.2,30,126.2s16,45.5,33.8,34.7c17.7-10.8-6.8-71.2-6.8-71.2l-30.4-19.7
	c0,0,22.8-1.2,36.7,17.3c13.9,18.5,14.8,78.4,14.8,78.4s35,7.2,43.5,34.1c0,0,5.5-23.9-5.1-38.3c-2.6-3.6-5.4-9.8-8.1-17.2
	c-10.2-28.1-13.7-60.1-10.5-91.4c1.6-15.3,2.5-30.3,0.8-33.8c-3.8-7.8-19.8-55.6-21.1-68.2c-1.3-12.6,1.3-38.9,1.3-38.9
	s0.4,32.3,5.5,42.5s19.4,60.4,19.4,60.4s0,63.4,11.8,94.5s34.6,65.8,33.3,88.5v13.2c0,0,25.3-34.1,23.6-45.5
	c-1.7-11.4-3.8-38.3-19.8-54.4c-16-16.2-26.6-41.9-15.2-79s11.4-43.7,11.4-43.7L299,238c0,0-4.2,41.3,7.6,55.6s27.4,40.7,27.4,40.7
	l-3.4-86.1l11,34.1c0,0,23.6-43.1,51.5-57.4c27.8-14.4,45.1-64.6,45.1-64.6L462,134l-19.4,32.9c0,0-5.9,38.9-39.2,66.4
	c-33.3,27.5-54.8,68.2-56.1,93.3c-1.3,25.1-2.5,47.3-2.5,47.3s62.4-3,76.4-41.9c13.9-38.9,15.2-116,28.7-128.6s38.8-28.1,38.8-28.1
	l-28.3,32.9c0,0-5.9,26.9-4.6,46.1c1.3,19.1-9.3,37.1-9.3,37.1l-8,33.5l-8.9,28.7c0,0,36.3,1.2,55.3,31.7s66.2,39.5,66.2,39.5
	L524.5,435c0,0-25.3-12-49.4-34.1c-24-22.1-21.5-41.9-51.5-19.7c-30,22.1-70.9,40.7-70.9,40.7s23.6-15.6,66.2,22.1
	s-21.1-6.6-40.1,7.8c-19,14.4-27.8-3.6-35.4,32.3s-21.5,134-5.5,189l16,55L262.8,728L262.8,728z"/>
</svg>
