<?xml version="1.0" encoding="utf-8"?>
<!-- Generator: Adobe Illustrator 19.2.1, SVG Export Plug-In . SVG Version: 6.00 Build 0)  -->
<svg version="1.1" id="Layer_1" xmlns="http://www.w3.org/2000/svg" xmlns:xlink="http://www.w3.org/1999/xlink" x="0px" y="0px"
	 viewBox="0 0 595.3 841.9" style="enable-background:new 0 0 595.3 841.9;" xml:space="preserve">
<style type="text/css">
	.st0{fill:#A0626B;}
	.st1{fill:#302E41;}
	.st2{opacity:0.1;fill:#010101;enable-background:new    ;}
	.st3{fill:#585B8A;}
</style>
<path class="st0" d="M256.8,288.1c0,0-6.5,19.5-2.9,23.8c3.6,4.3-21.6-13-21.6-13L246,283L256.8,288.1z"/>
<circle class="st1" cx="242" cy="255.7" r="32.4"/>
<polygon class="st0" points="367.9,507.4 351.3,520.4 341.9,505.2 358.5,493.7 "/>
<path class="st1" d="M344.5,605.1l4.3,20.9l12.3,16.6c0,0,33.2,10.1,10.8,15.1s-27.4-3.6-27.4-3.6l-15.9-13.7v18.8h-10.1l-2.2-26.7
	c0,0-1.4-7.9,5-16.6l1.4-13L344.5,605.1z"/>
<path class="st0" d="M260.8,346.2l5.8,33.2c0,0,61.3-6.5,65.6,5.8S338,401,338,401l-12.3,4.3l-5.8-10.8c-3.6-1.3-7.5-1-10.8,0.7
	c-5.8,2.9-56.3,10.1-59.9,0.7s-13.7-44-13.7-44l15.1-12.3L260.8,346.2z"/>
<path class="st2" d="M260.8,346.2l5.8,33.2c0,0,61.3-6.5,65.6,5.8S338,401,338,401l-12.3,4.3l-5.8-10.8c-3.6-1.3-7.5-1-10.8,0.7
	c-5.8,2.9-56.3,10.1-59.9,0.7s-13.7-44-13.7-44l15.1-12.3L260.8,346.2z"/>
<path class="st1" d="M294.7,442.1l5,17.3l13,66.4c0,0,1.4,49,3.6,54.8s2.2,6.5,0,8.7s-6.5,9.4,0,13.7s29.6,9.4,30.3,4.3
	s0.7-13,0-16.6s2.2-59.9,2.2-59.9l-8.7-85.8l-29.6-13.7L294.7,442.1z"/>
<path class="st2" d="M294.7,442.1l5,17.3l13,66.4c0,0,1.4,49,3.6,54.8s2.2,6.5,0,8.7s-6.5,9.4,0,13.7s29.6,9.4,30.3,4.3
	s0.7-13,0-16.6s2.2-59.9,2.2-59.9l-8.7-85.8l-29.6-13.7L294.7,442.1z"/>
<path class="st1" d="M325.7,374.3l15.9,30.3c0,0,90.9,40.4,82.9,57s-51.9,47.6-51.9,47.6s-2.2,12.3-8.7,8.7s-22.4-22.4-20.9-24.5
	s6.5-7.2,8.7-6.5s27.4-18.8,27.4-18.8l-43.3-10.8c0,0-51.9-1.4-54.8-26s0-28.8,0-28.8l-3.6-7.9l29.6-18L325.7,374.3z"/>
<path class="st1" d="M348.1,494.1L333,507.8c0,0-13-5.8-20.9-3.6s-21.6,3.6-21.6,3.6l2.2,12.3l18.4-3.4l-14.8,20.7
	c0,0,0,32.5,9.4,32.5s6.5-19.5,6.5-19.5L341,528c0,0,14.4-5.8,15.9-5.8S348.1,494.1,348.1,494.1z"/>
<ellipse transform="matrix(7.088789e-002 -0.9975 0.9975 7.088789e-002 -32.8013 503.6444)" class="st0" cx="254" cy="269.4" rx="24.5" ry="24.5"/>
<path class="st3" d="M229.8,288.5c0,0,11.5-2.9,15.1,0s4.3,9.4,9.4,10.1c5.1,0.7,9.4,0.7,10.1,1.4s17.3,20.9,17.3,20.9
	s10.1,5.8,12.3,13.7c2.2,7.9,23.8,34.6,26.7,37.5s-18.8,17.3-26,22.4s-28.1,7.2-34.6-4.3S218.2,303.7,229.8,288.5z"/>
<path class="st0" d="M257.2,335.4l5.8,33.2c0,0,61.3-6.5,65.6,5.8s5.8,15.9,5.8,15.9l-12.3,4.3l-5.8-10.8c-3.6-1.3-7.5-1-10.8,0.7
	c-5.8,2.9-56.3,10.1-59.9,0.7c-3.6-9.4-13.7-44-13.7-44l15.1-12.3L257.2,335.4z"/>
<path class="st3" d="M243.4,291.5c0,0,17.4,36.6,15.9,46.7c-1.4,10.1-6.5,2.9-6.5,2.9s-6.5-10.1-9.4-4.3s-6.5,13.7-9.4,13
	s-18.8-54.1-10.1-59.1S243.4,291.5,243.4,291.5z"/>
<ellipse transform="matrix(4.531317e-002 -0.999 0.999 4.531317e-002 -15.3349 410.2199)" class="st1" cx="207" cy="213.1" rx="32.4" ry="32.4"/>
<path class="st1" d="M179,239.9c14.5,10.5,34.7,7.2,45.2-7.3c2.1-2.9,3.8-6.2,4.8-9.7c-2.2,17.7-18.4,30.3-36.2,28.1
	c-17.7-2.2-30.3-18.4-28.1-36.2c0.2-1.8,0.6-3.5,1.1-5.2C164.4,221.4,169.4,233,179,239.9z"/>
<circle class="st1" cx="233.4" cy="261.1" r="23.7"/>
<ellipse class="st1" cx="253.4" cy="252.2" rx="21" ry="16.5"/>
<ellipse class="st0" cx="254.3" cy="271.9" rx="4.7" ry="8.3"/>
<path class="st1" d="M318.7,394.2c0,0,12.8-7.3,15.1-5.5s3.4,7.6,3.4,7.6l-14.8,5.8l-4.3-7.9L318.7,394.2z"/>
<path class="st0" d="M256.8,288.1c0,0-6.5,19.5-2.9,23.8c3.6,4.3-21.6-13-21.6-13L246,283L256.8,288.1z"/>
<circle class="st1" cx="242" cy="255.7" r="32.4"/>
<polygon class="st0" points="367.9,507.4 351.3,520.4 341.9,505.2 358.5,493.7 "/>
<path class="st1" d="M344.5,605.1l4.3,20.9l12.3,16.6c0,0,33.2,10.1,10.8,15.1s-27.4-3.6-27.4-3.6l-15.9-13.7v18.8h-10.1l-2.2-26.7
	c0,0-1.4-7.9,5-16.6l1.4-13L344.5,605.1z"/>
<path class="st0" d="M260.8,346.2l5.8,33.2c0,0,61.3-6.5,65.6,5.8S338,401,338,401l-12.3,4.3l-5.8-10.8c-3.6-1.3-7.5-1-10.8,0.7
	c-5.8,2.9-56.3,10.1-59.9,0.7s-13.7-44-13.7-44l15.1-12.3L260.8,346.2z"/>
<path class="st2" d="M260.8,346.2l5.8,33.2c0,0,61.3-6.5,65.6,5.8S338,401,338,401l-12.3,4.3l-5.8-10.8c-3.6-1.3-7.5-1-10.8,0.7
	c-5.8,2.9-56.3,10.1-59.9,0.7s-13.7-44-13.7-44l15.1-12.3L260.8,346.2z"/>
<path class="st1" d="M294.7,442.1l5,17.3l13,66.4c0,0,1.4,49,3.6,54.8s2.2,6.5,0,8.7s-6.5,9.4,0,13.7s29.6,9.4,30.3,4.3
	s0.7-13,0-16.6s2.2-59.9,2.2-59.9l-8.7-85.8l-29.6-13.7L294.7,442.1z"/>
<path class="st2" d="M294.7,442.1l5,17.3l13,66.4c0,0,1.4,49,3.6,54.8s2.2,6.5,0,8.7s-6.5,9.4,0,13.7s29.6,9.4,30.3,4.3
	s0.7-13,0-16.6s2.2-59.9,2.2-59.9l-8.7-85.8l-29.6-13.7L294.7,442.1z"/>
<path class="st1" d="M325.7,374.3l15.9,30.3c0,0,90.9,40.4,82.9,57s-51.9,47.6-51.9,47.6s-2.2,12.3-8.7,8.7s-22.4-22.4-20.9-24.5
	s6.5-7.2,8.7-6.5s27.4-18.8,27.4-18.8l-43.3-10.8c0,0-51.9-1.4-54.8-26s0-28.8,0-28.8l-3.6-7.9l29.6-18L325.7,374.3z"/>
<path class="st1" d="M348.1,494.1L333,507.8c0,0-13-5.8-20.9-3.6s-21.6,3.6-21.6,3.6l2.2,12.3l18.4-3.4l-14.8,20.7
	c0,0,0,32.5,9.4,32.5s6.5-19.5,6.5-19.5L341,528c0,0,14.4-5.8,15.9-5.8S348.1,494.1,348.1,494.1z"/>
<ellipse transform="matrix(7.088789e-002 -0.9975 0.9975 7.088789e-002 -32.8013 503.6444)" class="st0" cx="254" cy="269.4" rx="24.5" ry="24.5"/>
<path class="st3" d="M229.8,288.5c0,0,11.5-2.9,15.1,0s4.3,9.4,9.4,10.1c5.1,0.7,9.4,0.7,10.1,1.4s17.3,20.9,17.3,20.9
	s10.1,5.8,12.3,13.7c2.2,7.9,23.8,34.6,26.7,37.5s-18.8,17.3-26,22.4s-28.1,7.2-34.6-4.3S218.2,303.7,229.8,288.5z"/>
<path class="st0" d="M257.2,335.4l5.8,33.2c0,0,61.3-6.5,65.6,5.8s5.8,15.9,5.8,15.9l-12.3,4.3l-5.8-10.8c-3.6-1.3-7.5-1-10.8,0.7
	c-5.8,2.9-56.3,10.1-59.9,0.7c-3.6-9.4-13.7-44-13.7-44l15.1-12.3L257.2,335.4z"/>
<path class="st3" d="M243.4,291.5c0,0,17.4,36.6,15.9,46.7c-1.4,10.1-6.5,2.9-6.5,2.9s-6.5-10.1-9.4-4.3s-6.5,13.7-9.4,13
	s-18.8-54.1-10.1-59.1S243.4,291.5,243.4,291.5z"/>
<ellipse transform="matrix(4.531317e-002 -0.999 0.999 4.531317e-002 -15.3349 410.2199)" class="st1" cx="207" cy="213.1" rx="32.4" ry="32.4"/>
<path class="st1" d="M179,239.9c14.5,10.5,34.7,7.2,45.2-7.3c2.1-2.9,3.8-6.2,4.8-9.7c-2.2,17.7-18.4,30.3-36.2,28.1
	c-17.7-2.2-30.3-18.4-28.1-36.2c0.2-1.8,0.6-3.5,1.1-5.2C164.4,221.4,169.4,233,179,239.9z"/>
<circle class="st1" cx="233.4" cy="261.1" r="23.7"/>
<ellipse class="st1" cx="253.4" cy="252.2" rx="21" ry="16.5"/>
<ellipse class="st0" cx="254.3" cy="271.9" rx="4.7" ry="8.3"/>
<path class="st1" d="M318.7,394.2c0,0,12.8-7.3,15.1-5.5s3.4,7.6,3.4,7.6l-14.8,5.8l-4.3-7.9L318.7,394.2z"/>
<path class="st0" d="M256.8,288.1c0,0-6.5,19.5-2.9,23.8c3.6,4.3-21.6-13-21.6-13L246,283L256.8,288.1z"/>
<circle class="st1" cx="242" cy="255.7" r="32.4"/>
<polygon class="st0" points="367.9,507.4 351.3,520.4 341.9,505.2 358.5,493.7 "/>
<path class="st1" d="M344.5,605.1l4.3,20.9l12.3,16.6c0,0,33.2,10.1,10.8,15.1s-27.4-3.6-27.4-3.6l-15.9-13.7v18.8h-10.1l-2.2-26.7
	c0,0-1.4-7.9,5-16.6l1.4-13L344.5,605.1z"/>
<path class="st0" d="M260.8,346.2l5.8,33.2c0,0,61.3-6.5,65.6,5.8S338,401,338,401l-12.3,4.3l-5.8-10.8c-3.6-1.3-7.5-1-10.8,0.7
	c-5.8,2.9-56.3,10.1-59.9,0.7s-13.7-44-13.7-44l15.1-12.3L260.8,346.2z"/>
<path class="st2" d="M260.8,346.2l5.8,33.2c0,0,61.3-6.5,65.6,5.8S338,401,338,401l-12.3,4.3l-5.8-10.8c-3.6-1.3-7.5-1-10.8,0.7
	c-5.8,2.9-56.3,10.1-59.9,0.7s-13.7-44-13.7-44l15.1-12.3L260.8,346.2z"/>
<path class="st1" d="M294.7,442.1l5,17.3l13,66.4c0,0,1.4,49,3.6,54.8s2.2,6.5,0,8.7s-6.5,9.4,0,13.7s29.6,9.4,30.3,4.3
	s0.7-13,0-16.6s2.2-59.9,2.2-59.9l-8.7-85.8l-29.6-13.7L294.7,442.1z"/>
<path class="st2" d="M294.7,442.1l5,17.3l13,66.4c0,0,1.4,49,3.6,54.8s2.2,6.5,0,8.7s-6.5,9.4,0,13.7s29.6,9.4,30.3,4.3
	s0.7-13,0-16.6s2.2-59.9,2.2-59.9l-8.7-85.8l-29.6-13.7L294.7,442.1z"/>
<path class="st1" d="M325.7,374.3l15.9,30.3c0,0,90.9,40.4,82.9,57s-51.9,47.6-51.9,47.6s-2.2,12.3-8.7,8.7s-22.4-22.4-20.9-24.5
	s6.5-7.2,8.7-6.5s27.4-18.8,27.4-18.8l-43.3-10.8c0,0-51.9-1.4-54.8-26s0-28.8,0-28.8l-3.6-7.9l29.6-18L325.7,374.3z"/>
<path class="st1" d="M348.1,494.1L333,507.8c0,0-13-5.8-20.9-3.6s-21.6,3.6-21.6,3.6l2.2,12.3l18.4-3.4l-14.8,20.7
	c0,0,0,32.5,9.4,32.5s6.5-19.5,6.5-19.5L341,528c0,0,14.4-5.8,15.9-5.8S348.1,494.1,348.1,494.1z"/>
<ellipse transform="matrix(7.088789e-002 -0.9975 0.9975 7.088789e-002 -32.8013 503.6444)" class="st0" cx="254" cy="269.4" rx="24.5" ry="24.5"/>
<path class="st3" d="M229.8,288.5c0,0,11.5-2.9,15.1,0s4.3,9.4,9.4,10.1c5.1,0.7,9.4,0.7,10.1,1.4s17.3,20.9,17.3,20.9
	s10.1,5.8,12.3,13.7c2.2,7.9,23.8,34.6,26.7,37.5s-18.8,17.3-26,22.4s-28.1,7.2-34.6-4.3S218.2,303.7,229.8,288.5z"/>
<path class="st0" d="M257.2,335.4l5.8,33.2c0,0,61.3-6.5,65.6,5.8s5.8,15.9,5.8,15.9l-12.3,4.3l-5.8-10.8c-3.6-1.3-7.5-1-10.8,0.7
	c-5.8,2.9-56.3,10.1-59.9,0.7c-3.6-9.4-13.7-44-13.7-44l15.1-12.3L257.2,335.4z"/>
<path class="st3" d="M243.4,291.5c0,0,17.4,36.6,15.9,46.7c-1.4,10.1-6.5,2.9-6.5,2.9s-6.5-10.1-9.4-4.3s-6.5,13.7-9.4,13
	s-18.8-54.1-10.1-59.1S243.4,291.5,243.4,291.5z"/>
<ellipse transform="matrix(4.531317e-002 -0.999 0.999 4.531317e-002 -15.3349 410.2199)" class="st1" cx="207" cy="213.1" rx="32.4" ry="32.4"/>
<path class="st1" d="M179,239.9c14.5,10.5,34.7,7.2,45.2-7.3c2.1-2.9,3.8-6.2,4.8-9.7c-2.2,17.7-18.4,30.3-36.2,28.1
	c-17.7-2.2-30.3-18.4-28.1-36.2c0.2-1.8,0.6-3.5,1.1-5.2C164.4,221.4,169.4,233,179,239.9z"/>
<circle class="st1" cx="233.4" cy="261.1" r="23.7"/>
<ellipse class="st1" cx="253.4" cy="252.2" rx="21" ry="16.5"/>
<ellipse class="st0" cx="254.3" cy="271.9" rx="4.7" ry="8.3"/>
<path class="st1" d="M318.7,394.2c0,0,12.8-7.3,15.1-5.5s3.4,7.6,3.4,7.6l-14.8,5.8l-4.3-7.9L318.7,394.2z"/>
<path class="st0" d="M256.8,288.1c0,0-6.5,19.5-2.9,23.8c3.6,4.3-21.6-13-21.6-13L246,283L256.8,288.1z"/>
<circle class="st1" cx="242" cy="255.7" r="32.4"/>
<polygon class="st0" points="367.9,507.4 351.3,520.4 341.9,505.2 358.5,493.7 "/>
<path class="st1" d="M344.5,605.1l4.3,20.9l12.3,16.6c0,0,33.2,10.1,10.8,15.1s-27.4-3.6-27.4-3.6l-15.9-13.7v18.8h-10.1l-2.2-26.7
	c0,0-1.4-7.9,5-16.6l1.4-13L344.5,605.1z"/>
<path class="st0" d="M260.8,346.2l5.8,33.2c0,0,61.3-6.5,65.6,5.8S338,401,338,401l-12.3,4.3l-5.8-10.8c-3.6-1.3-7.5-1-10.8,0.7
	c-5.8,2.9-56.3,10.1-59.9,0.7s-13.7-44-13.7-44l15.1-12.3L260.8,346.2z"/>
<path class="st2" d="M260.8,346.2l5.8,33.2c0,0,61.3-6.5,65.6,5.8S338,401,338,401l-12.3,4.3l-5.8-10.8c-3.6-1.3-7.5-1-10.8,0.7
	c-5.8,2.9-56.3,10.1-59.9,0.7s-13.7-44-13.7-44l15.1-12.3L260.8,346.2z"/>
<path class="st1" d="M294.7,442.1l5,17.3l13,66.4c0,0,1.4,49,3.6,54.8s2.2,6.5,0,8.7s-6.5,9.4,0,13.7s29.6,9.4,30.3,4.3
	s0.7-13,0-16.6s2.2-59.9,2.2-59.9l-8.7-85.8l-29.6-13.7L294.7,442.1z"/>
<path class="st2" d="M294.7,442.1l5,17.3l13,66.4c0,0,1.4,49,3.6,54.8s2.2,6.5,0,8.7s-6.5,9.4,0,13.7s29.6,9.4,30.3,4.3
	s0.7-13,0-16.6s2.2-59.9,2.2-59.9l-8.7-85.8l-29.6-13.7L294.7,442.1z"/>
<path class="st1" d="M325.7,374.3l15.9,30.3c0,0,90.9,40.4,82.9,57s-51.9,47.6-51.9,47.6s-2.2,12.3-8.7,8.7s-22.4-22.4-20.9-24.5
	s6.5-7.2,8.7-6.5s27.4-18.8,27.4-18.8l-43.3-10.8c0,0-51.9-1.4-54.8-26s0-28.8,0-28.8l-3.6-7.9l29.6-18L325.7,374.3z"/>
<path class="st1" d="M348.1,494.1L333,507.8c0,0-13-5.8-20.9-3.6s-21.6,3.6-21.6,3.6l2.2,12.3l18.4-3.4l-14.8,20.7
	c0,0,0,32.5,9.4,32.5s6.5-19.5,6.5-19.5L341,528c0,0,14.4-5.8,15.9-5.8S348.1,494.1,348.1,494.1z"/>
<ellipse transform="matrix(7.088789e-002 -0.9975 0.9975 7.088789e-002 -32.8013 503.6444)" class="st0" cx="254" cy="269.4" rx="24.5" ry="24.5"/>
<path class="st3" d="M229.8,288.5c0,0,11.5-2.9,15.1,0s4.3,9.4,9.4,10.1c5.1,0.7,9.4,0.7,10.1,1.4s17.3,20.9,17.3,20.9
	s10.1,5.8,12.3,13.7c2.2,7.9,23.8,34.6,26.7,37.5s-18.8,17.3-26,22.4s-28.1,7.2-34.6-4.3S218.2,303.7,229.8,288.5z"/>
<path class="st0" d="M257.2,335.4l5.8,33.2c0,0,61.3-6.5,65.6,5.8s5.8,15.9,5.8,15.9l-12.3,4.3l-5.8-10.8c-3.6-1.3-7.5-1-10.8,0.7
	c-5.8,2.9-56.3,10.1-59.9,0.7c-3.6-9.4-13.7-44-13.7-44l15.1-12.3L257.2,335.4z"/>
<path class="st3" d="M243.4,291.5c0,0,17.4,36.6,15.9,46.7c-1.4,10.1-6.5,2.9-6.5,2.9s-6.5-10.1-9.4-4.3s-6.5,13.7-9.4,13
	s-18.8-54.1-10.1-59.1S243.4,291.5,243.4,291.5z"/>
<ellipse transform="matrix(4.531317e-002 -0.999 0.999 4.531317e-002 -15.3349 410.2199)" class="st1" cx="207" cy="213.1" rx="32.4" ry="32.4"/>
<path class="st1" d="M179,239.9c14.5,10.5,34.7,7.2,45.2-7.3c2.1-2.9,3.8-6.2,4.8-9.7c-2.2,17.7-18.4,30.3-36.2,28.1
	c-17.7-2.2-30.3-18.4-28.1-36.2c0.2-1.8,0.6-3.5,1.1-5.2C164.4,221.4,169.4,233,179,239.9z"/>
<circle class="st1" cx="233.4" cy="261.1" r="23.7"/>
<ellipse class="st1" cx="253.4" cy="252.2" rx="21" ry="16.5"/>
<ellipse class="st0" cx="254.3" cy="271.9" rx="4.7" ry="8.3"/>
<path class="st1" d="M318.7,394.2c0,0,12.8-7.3,15.1-5.5s3.4,7.6,3.4,7.6l-14.8,5.8l-4.3-7.9L318.7,394.2z"/>
</svg>
