<?xml version="1.0" encoding="utf-8"?>
<!-- Generator: Adobe Illustrator 19.2.1, SVG Export Plug-In . SVG Version: 6.00 Build 0)  -->
<svg version="1.1" id="Layer_1" xmlns="http://www.w3.org/2000/svg" xmlns:xlink="http://www.w3.org/1999/xlink" x="0px" y="0px"
	 viewBox="0 0 1256 1049.8" style="enable-background:new 0 0 1256 1049.8;" xml:space="preserve">
<style type="text/css">
	.st0{fill:none;}
	.st1{opacity:0.32;fill:url(#SVGID_1_);enable-background:new    ;}
	.st2{opacity:0.32;fill:url(#SVGID_2_);enable-background:new    ;}
	.st3{fill:#818181;}
	.st4{fill:#5D2E1E;}
	.st5{fill:#ACCAEA;}
	.st6{fill:#4C479D;}
	.st7{fill:#A9ACD6;}
	.st8{fill:#895952;}
	.st9{fill:#4EBACC;}
	.st10{fill:#7CD2EE;}
	.st11{opacity:0.68;fill:url(#SVGID_3_);enable-background:new    ;}
	.st12{fill:#B4B4B4;}
	.st13{fill:#FFFFFF;}
	.st14{fill:#FEE0CE;}
	.st15{fill:#8DC641;}
	.st16{fill:#FAC8B0;}
	.st17{fill:#6D9A3F;}
	.st18{fill:url(#SVGID_4_);}
	.st19{fill:#D67628;}
	.st20{fill:#843A1C;}
	.st21{fill:#42A047;}
</style>
<g>
	<polygon class="st0" points="210.7,443.1 209.6,708.2 421.4,572.3 	"/>
	<polygon class="st0" points="979.1,618 921.6,651.4 988.1,689.2 	"/>
	<path class="st0" d="M926.1,420.9c3.4,2.2,9,3.3,15.8,7.8l16.9-105.8c-6.8-1.1-14.6-3.3-22.5-4.5c0,0,0,0-1.1,0
		c-3.4,18.9-5.6,35.6-10.1,51.2C927.2,379.6,928.4,398.6,926.1,420.9z"/>
	<path class="st0" d="M788.7,339.6c-1.1-15.6-3.4-31.2-3.4-49c-10.1,12.2-30.4,39-42.8,53.5l22.5,13.4
		C774,350.7,783,344,788.7,339.6z"/>
	
		<linearGradient id="SVGID_1_" gradientUnits="userSpaceOnUse" x1="771.5733" y1="1561.5039" x2="973.3479" y2="1210.4603" gradientTransform="matrix(1 2.652609e-003 -2.652609e-003 1 1.6204 -541.3301)">
		<stop  offset="0" style="stop-color:#010101;stop-opacity:0"/>
		<stop  offset="0.99" style="stop-color:#046937"/>
	</linearGradient>
	<path class="st1" d="M996,740.5l-6.8-49l-67.6-37.9l-13.5,7.8l-3.4,147h-15.8V672.5l-86.8,49l-7.9,42.3c-3.4,1.1-7.9,2.2-10.1,3.3
		c-1.1,17.8-2.3,36.7-3.4,41.2c-2.3,4.5-23.7,16.7-45.1,24.5v123.6l339.1-216l-67.6-39l4.5,40.1H996V740.5z"/>
	
		<linearGradient id="SVGID_2_" gradientUnits="userSpaceOnUse" x1="445.5689" y1="1375.2009" x2="645.7288" y2="1026.9631" gradientTransform="matrix(1 2.652609e-003 -2.652609e-003 1 1.6204 -541.3301)">
		<stop  offset="0" style="stop-color:#010101;stop-opacity:0"/>
		<stop  offset="0.99" style="stop-color:#046937"/>
	</linearGradient>
	<path class="st2" d="M698.5,844c-11.3,1.1-29.3-3.3-30.4-14.5c-1.1-10,48.4-43.4,50.7-49c1.1-2.2,3.4-10,6.8-18.9
		c-12.4-3.3-21.4-8.9-24.8-10c-1.1,2.2-3.4,2.2-4.5,0c-16.9,11.1-65.3,31.2-75.5,32.3c-11.3,1.1-29.3-3.3-30.4-14.5
		c-1.1-11.1,48.4-43.4,50.7-49c1.1-1.1,2.3-4.5,3.4-10L419.1,571.2L208.4,705.9v7.8c0,1.1-1.1,2.2-2.3,2.2c-1.1,0-3.4-1.1-3.4-2.2
		v-4.5l-63.1,40.1l458.6,288.4l128.4-81.3V831.8C716.6,838.4,704.2,842.9,698.5,844z"/>
	<polygon class="st3" points="905.8,806.2 908.1,659.2 890.1,669.2 888.9,806.2 	"/>
	<polygon class="st3" points="988.1,689.2 996,740.5 1011.7,740.5 1007.2,700.4 994.8,610.2 979.1,618 	"/>
	<path class="st4" d="M591.5,770.5c1.1,10,19.2,14.5,30.4,14.5c10.1-1.1,57.5-21.2,75.5-32.3c1.1,2.2,3.4,2.2,4.5,0
		c0,0,1.1-1.1,1.1-2.2s0-2.2,0-3.3l-5.6-3.3l-50.7-31.2c-2.3,4.5-3.4,8.9-3.4,10C638.8,727.1,590.4,760.5,591.5,770.5z"/>
	<path class="st4" d="M719.9,780.5c-3.4,4.5-51.8,37.9-50.7,49c1.1,10,19.2,14.5,30.4,14.5c4.5,0,16.9-4.5,30.4-10v-70.2
		c-1.1,0-2.3-1.1-3.4-1.1C723.3,771.6,721.1,779.4,719.9,780.5z"/>
	<path class="st4" d="M780.8,806.2c2.3-3.3,3.4-22.3,3.4-41.2c-18,3.3-34.9,3.3-49.6-1.1v66.8C756,821.7,777.4,810.6,780.8,806.2z"
		/>
	<path class="st3" d="M959.9,321.7L943,427.5c6.8,3.3,15.8,8.9,22.5,14.5c3.4-29,10.1-80.2,16.9-120.3
		C974.6,324,967.8,324,959.9,321.7z"/>
	<path class="st5" d="M974.6,483.2c1.1,1.1,2.3,3.3,3.4,3.3l3.4,2.2v-22.3l0,0c0,1.1,0,3.3,0,3.3
		C980.2,474.3,977.9,478.8,974.6,483.2z"/>
	<path class="st6" d="M974.6,485.4l3.4,2.2C976.8,486.6,975.7,484.3,974.6,485.4C974.6,483.2,974.6,484.3,974.6,485.4z"/>
	<path class="st7" d="M926.1,420.9c-1.1,11.1-2.3,22.3-3.4,33.4l50.7,30.1c0-1.1,1.1-1.1,1.1-2.2c3.4-4.5,4.5-10,5.6-13.4
		c0-1.1,0-3.3,0-3.3c0-8.9-7.9-16.7-16.9-24.5c-6.8-5.6-15.8-10-22.5-14.5C935.1,424.2,929.5,422,926.1,420.9z"/>
	<path class="st7" d="M936.3,317.3C936.3,317.3,937.4,317.3,936.3,317.3c9,3.3,16.9,4.5,22.5,5.6c7.9,1.1,15.8,1.1,21.4,0
		c42.8-5.6,41.7-55.7,36.1-84.6c-5.6-36.7-67.6-53.5-67.6-53.5l-6.8,3.3C946.4,214.8,943,269.4,936.3,317.3z"/>
	<path class="st8" d="M824.7,377.4L824.7,377.4c-4.5,3.3-9,5.6-13.5,8.9C815.7,383,821.3,380.8,824.7,377.4z"/>
	<path class="st8" d="M805.6,383c4.5-3.3,9-5.6,13.5-8.9c-10.1-5.6-20.3-13.4-29.3-22.3c0-3.3-1.1-7.8-1.1-11.1
		c-5.6,4.5-14.6,10-23.7,17.8L805.6,383z"/>
	<path class="st8" d="M701.9,751.6c3.4,2.2,12.4,6.7,24.8,10c1.1,0,2.3,1.1,3.4,1.1v-2.2l-1.1,1.1L703,744.9c0,1.1,0,2.2,0,3.3
		C703,750.5,701.9,751.6,701.9,751.6z"/>
	<path class="st8" d="M784.2,765c3.4-1.1,7.9-2.2,10.1-3.3l7.9-42.3l-68.7,39v5.6C749.2,767.2,766.1,768.3,784.2,765z"/>
	<path class="st8" d="M927.2,367.4c-2.3,7.8-3.4,14.5-6.8,20c-2.3,0-3.4,1.1-6.8,1.1c-1.1,2.2-3.4,3.3-3.4,5.6
		c-6.8,7.8-22.5,17.8-40.6,27.8l53,32.3c2.3-11.1,3.4-22.3,3.4-33.4C928.4,398.6,927.2,379.6,927.2,367.4z"/>
	<path class="st9" d="M1079.3,561.2l11.3-6.7l-109.3-66.8l-3.4-2.2l-3.4-2.2l-50.7-30.1l-53-32.3c-24.8,14.5-51.8,26.7-51.8,26.7
		s-2.3-3.3-4.5-8.9L790.9,452l11.3,7.8l-89,54.6L537.4,630.2c-27-20-142-84.6-169-103.6l148.7-86.9c0,0,0,0,0-1.1
		c0,0-1.1-3.3-3.4-10l0,0l0,0c-9-33.4-39.4-147-39.4-147l123.9,74.6l29.3-17.8c-5.6-3.3-10.1-5.6-10.1-5.6s36.1-16.7,57.5-29
		l-123.9-74.6L199.4,436.4l4.5,3.3l-1.1,270.6v4.5c0,2.2,2.3,3.3,3.4,2.2c1.1,0,2.3-1.1,2.3-2.2V707l1.1-263.9l209.6,129.2
		l225.3,139.2l50.7,31.2l5.6,3.3l25.9,16.7l1.1-1.1v2.2V834v124.7v2.2c0,2.2,2.3,3.3,3.4,2.2c1.1,0,2.3-1.1,2.3-2.2v-4.5V832.9
		v-66.8v-5.6l68.7-39l86.8-49l18-10l13.5-7.8l57.5-33.4l16.9-10l80-45.7v174.8c0,2.2,2.3,3.3,3.4,2.2c1.1,0,2.3-1.1,2.3-2.2V565.6
		C1079.3,563.4,1079.3,562.3,1079.3,561.2z"/>
	<path class="st10" d="M757.1,422c6.8-3.3,15.8-6.7,22.5-10c2.3-1.1,4.5-2.2,6.8-2.2c-2.3-1.1-3.4-3.3-6.8-3.3l0,0
		c-2.3-1.1-3.4-3.3,0-5.6c9-5.6,16.9-11.1,25.9-16.7L765,359.6l-22.5-13.4l0,0c-10.1,12.2-42.8,29-65.3,40.1l69.9,42.3
		C750.4,425.3,753.7,423.1,757.1,422z"/>
	<path class="st10" d="M678.3,534.4L678.3,534.4L678.3,534.4l-5.6-3.3c-27-16.7-146.5-84.6-154.4-91.3l-148.7,86.9
		c28.2,18.9,142,83.5,169,103.6l174.6-115.8L678.3,534.4L678.3,534.4z"/>
	
		<linearGradient id="SVGID_3_" gradientUnits="userSpaceOnUse" x1="385.0757" y1="892.3138" x2="624.731" y2="674.7141" gradientTransform="matrix(1 0 0 1 0 -229.89)">
		<stop  offset="0" style="stop-color:#4EBACC"/>
		<stop  offset="1" style="stop-color:#737373"/>
	</linearGradient>
	<path class="st11" d="M678.3,534.4L678.3,534.4L678.3,534.4l-5.6-3.3c-27-16.7-146.5-84.6-154.4-91.3l-148.7,86.9
		c28.2,18.9,142,83.5,169,103.6l174.6-115.8L678.3,534.4L678.3,534.4z"/>
	<path class="st12" d="M513.8,429.8L513.8,429.8C514.9,429.8,513.8,429.8,513.8,429.8L513.8,429.8z"/>
	<path class="st12" d="M768.4,476.5c-2.3,0-3.4-3.3-3.4-5.6l0,0c0,1.1-2.3,1.1-2.3,0c-3.4,3.3-6.8,10-10.1,10
		c-3.4,1.1-4.5-2.2-6.8-3.3c0,1.1-1.1,1.1-1.1,1.1c-1.1,0-1.1-1.1-1.1-1.1v-1.1c-2.3,1.1-6.8,4.5-9,3.3c-2.3-1.1-2.3-4.5-2.3-6.7
		c-1.1,0-1.1-1.1-1.1-1.1c-2.3,1.1-6.8,2.2-10.1-1.1c-3.4-3.3,3.4-15.6,4.5-18.9c4.5-10,11.3-17.8,19.2-24.5l-69.9-42.3
		c-11.3,5.6-19.2,8.9-19.2,8.9c0-5.6,0-10-1.1-15.6l-14.6,5.6l3.4,2.2l31.5,148.1l0,0l34.9-21.2l89-54.6l-11.3-7.8h-1.1
		C788.7,453.1,771.8,476.5,768.4,476.5z"/>
	<path class="st12" d="M678.3,534.4c0,0-2.3-2.2-5.6-3.3L678.3,534.4z"/>
	<path class="st13" d="M678.3,534.4L678.3,534.4L678.3,534.4l-31.5-148.1l-3.4-2.2h-1.1l-42.8-26.7l0,0l-123.9-74.6
		c0,0,29.3,112.5,39.4,147l0,0c1.1,5.6,2.3,8.9,3.4,10c0,0,0,0,0,1.1c7.9,6.7,127.3,74.6,154.4,91.3
		C674.9,533.3,677.1,534.4,678.3,534.4z"/>
	<path class="st14" d="M642.2,385.2L642.2,385.2l15.8-6.7c-3.4-20-18-32.3-29.3-37.9l-29.3,17.8l0,0L642.2,385.2z"/>
	<path class="st15" d="M628.7,339.6c10.1,6.7,24.8,18.9,29.3,37.9c1.1,4.5,1.1,10,1.1,15.6c0,0,7.9-3.3,19.2-8.9
		c21.4-10,55.2-27.8,65.3-40.1l0,0c11.3-14.5,31.5-40.1,42.8-53.5c2.3,16.7,3.4,33.4,3.4,49c0,3.3,1.1,7.8,1.1,11.1
		c10.1,10,19.2,16.7,29.3,22.3c1.1-1.1,3.4-2.2,3.4-3.3c13.5-10,34.9-18.9,40.6-35.6c3.4-15.6,6.8-31.2,9-47.9
		c3.4-17.8,4.5-35.6,5.6-54.6c0-3.3,6.8-3.3,5.6,0c-1.1,20-3.4,40.1-5.6,59c-2.3,15.6-3.4,35.6-10.1,50.1c-1.1,1.1-1.1,3.3-2.3,3.3
		c-5.6,8.9-15.8,14.5-23.7,20c-3.4,2.2-5.6,3.3-7.9,4.5c-3.4,2.2-5.6,3.3-7.9,4.5l0,0c-4.5,3.3-9,5.6-13.5,8.9
		c-10.1,6.7-19.2,13.4-29.3,18.9c-1.1,1.1-2.3,1.1-3.4,0l0,0c2.3,1.1,3.4,2.2,6.8,3.3c11.3,7.8,21.4,22.3,27,30.1
		c3.4,4.5,4.5,8.9,4.5,8.9s27-12.2,51.8-26.7c16.9-10,33.8-20,40.6-27.8c1.1-2.2,3.4-3.3,3.4-5.6c2.3,0,3.4-1.1,6.8-1.1
		c2.3-5.6,4.5-12.2,6.8-20c3.4-15.6,7.9-32.3,10.1-51.2c6.8-47.9,10.1-101.3,5.6-128.1c-1.1-7.8-3.4-13.4-4.5-15.6
		c-14.6-17.8-36.1-26.7-55.2-29l0,0c0,0-16.9,21.2-29.3,22.3c-3.4,0-6.8-3.3-9-8.9c0-3.3,0-4.5,0-7.8c-6.8-3.3-12.4-8.9-16.9-16.7
		c-11.3-1.1-24.8,0-38.3,11.1c-2.3,2.2-3.4,4.5-5.6,10c-19.2,30.1-81.1,128.1-95.8,141.4c-3.4,3.3-7.9,5.6-13.5,8.9
		c-22.5,13.4-57.5,29-57.5,29S623,337.3,628.7,339.6z M779.7,222.6l3.4,67.9l-23.7,30.1L779.7,222.6z"/>
	<path class="st16" d="M878.8,131.3c-4.5,10-12.4,16.7-23.7,20c-3.4,1.1-6.8,0-10.1-1.1c0,3.3,0,4.5,0,7.8c2.3,5.6,4.5,10,9,8.9
		c13.5-2.2,29.3-22.3,29.3-22.3l0,0l1.1-15.6C882.2,129.1,881.1,130.2,878.8,131.3L878.8,131.3z"/>
	<path class="st8" d="M842.7,61.2c13.5,3.3,12.4,7.8,14.6,17.8c2.3,11.1,29.3,18.9,29.3,18.9s-1.1,17.8-9,33.4l0,0
		c2.3-1.1,3.4-3.3,5.6-3.3c4.5-3.3,9-8.9,11.3-13.4c1.1-3.3,2.3-5.6,3.4-10l1.1-1.1c13.5-16.7,19.2-42.3,10.1-62.4
		c-9-18.9-24.8-22.3-42.8-18.9c-3.4-3.3-9-4.5-12.4-6.7c-15.8-3.3-30.4,1.1-40.6,13.4c-4.5-1.1-10.1,0-13.5,2.2
		c-12.4,5.6-14.6,20-11.3,32.3c0,1.1,0,1.1,0,2.2c1.1,22.3,22.5,31.2,22.5,31.2l3.4,2.2c-3.4-10-3.4-16.7-3.4-18.9
		C808.9,66.7,829.2,57.8,842.7,61.2z"/>
	<path class="st14" d="M845,150.2c3.4,1.1,6.8,2.2,10.1,1.1c11.3-2.2,19.2-10,23.7-20c7.9-15.6,9-33.4,9-33.4s-28.2-7.8-29.3-18.9
		c-1.1-11.1-1.1-15.6-14.6-17.8c-13.5-3.3-34.9,5.6-31.5,17.8c1.1,2.2,2.3,10,3.4,18.9c3.4,10,6.8,24.5,12.4,35.6
		C832.6,141.3,838.2,148,845,150.2z"/>
	<polygon class="st17" points="779.7,222.6 760.5,322.9 784.2,291.7 	"/>
	<path class="st14" d="M785.3,409.7c-3.4,0-4.5,1.1-6.8,2.2c-6.8,3.3-15.8,6.7-22.5,10c-3.4,2.2-5.6,3.3-9,6.7
		c-7.9,6.7-14.6,15.6-19.2,24.5c-2.3,3.3-7.9,15.6-4.5,18.9c3.4,3.3,6.8,1.1,10.1,1.1l0,0c4.5-16.7,14.6-30.1,27-41.2
		c1.1-1.1,3.4,1.1,2.3,2.2c-11.3,10-21.4,24.5-25.9,40.1c0,1.1-1.1,1.1-1.1,1.1c0,2.2,0,5.6,2.3,6.7c2.3,1.1,6.8-2.2,9-3.3
		c3.4-16.7,12.4-31.2,24.8-43.4c1.1-1.1,3.4,1.1,2.3,2.2c-12.4,11.1-21.4,26.7-24.8,43.4l0,0c1.1,2.2,3.4,5.6,6.8,3.3
		c3.4-1.1,7.9-7.8,10.1-10l0,0c3.4-11.1,10.1-22.3,16.9-30.1c1.1-1.1,3.4,1.1,2.3,2.2c-7.9,8.9-13.5,18.9-16.9,29
		c0,3.3,1.1,5.6,3.4,5.6c3.4,0,20.3-23.4,20.3-23.4h1.1l23.7-13.4C807.8,430.9,796.6,416.4,785.3,409.7z"/>
	<path class="st4" d="M765,471L765,471c3.4-11.1,10.1-21.2,16.9-29c1.1-1.1-1.1-3.3-2.3-2.2c-7.9,8.9-13.5,18.9-16.9,30.1l0,0
		C763.9,472.1,763.9,472.1,765,471z"/>
	<path class="st4" d="M744.7,477.6C745.9,477.6,745.9,477.6,744.7,477.6L744.7,477.6c4.5-17.8,13.5-32.3,25.9-44.5
		c1.1-1.1,0-3.3-2.3-2.2C756,442,747,457.6,743.6,474.3v1.1C743.6,477.6,744.7,477.6,744.7,477.6z"/>
	<path class="st4" d="M734.6,473.2C734.6,473.2,735.7,473.2,734.6,473.2c5.6-16.7,15.8-30.1,27-41.2c1.1-1.1-1.1-3.3-2.3-2.2
		c-12.4,11.1-21.4,25.6-27,41.2l0,0C733.5,472.1,733.5,473.2,734.6,473.2z"/>
	<path class="st17" d="M779.7,399.7c-2.3,1.1-1.1,4.5,0,5.6c1.1,0,2.3,1.1,3.4,0c10.1-6.7,19.2-12.2,29.3-18.9
		c4.5-3.3,9-5.6,13.5-8.9c3.4-2.2,5.6-3.3,7.9-4.5c2.3-2.2,4.5-3.3,7.9-4.5c9-5.6,19.2-11.1,23.7-20c1.1-1.1,2.3-3.3,2.3-3.3
		c6.8-14.5,7.9-34.5,10.1-50.1c3.4-20,4.5-39,5.6-59c1.1-3.3-5.6-4.5-5.6,0c-1.1,17.8-3.4,35.6-5.6,54.6c-1.1,16.7-3.4,32.3-9,47.9
		c-5.6,16.7-27,26.7-40.6,35.6c-1.1,1.1-3.4,2.2-3.4,3.3c-4.5,3.3-9,5.6-13.5,8.9C796.6,388.6,788.7,394.1,779.7,399.7z"/>
</g>
<g>
	
		<linearGradient id="SVGID_4_" gradientUnits="userSpaceOnUse" x1="669.269" y1="1233.5562" x2="756.5172" y2="1146.3081" gradientTransform="matrix(1 -6.737311e-003 6.737311e-003 1 -6.6607 -539.3412)">
		<stop  offset="0" style="stop-color:#010101;stop-opacity:0"/>
		<stop  offset="1" style="stop-color:#4E4E4E"/>
	</linearGradient>
	<polyline class="st18" points="688.4,646.8 636.6,677.8 672.6,705.3 749.2,657.1 	"/>
	<path class="st19" d="M678.3,598.6c0,0,0,67.7,38.3,66.6c24.8,0,47.3-2.3,45.1-67.7"/>
	
		<ellipse transform="matrix(1 -6.613862e-003 6.613862e-003 1 -3.9437 4.7754)" class="st20" cx="720" cy="598.7" rx="41.7" ry="11.5"/>
	<path class="st21" d="M708.7,611.2L708.7,611.2c9,0,18,0,25.9,0c1.1-1.1,2.3-3.4,2.3-5.7l-1.1-65.4c0-5.7-5.6-10.3-13.5-10.3h-5.6
		c-7.9,0-13.5,4.6-13.5,10.3l1.1,65.4c0,1.1,1.1,3.4,2.3,4.6C706.4,610,707.5,611.2,708.7,611.2z"/>
	<path class="st21" d="M719.9,560.7h25.9c3.4-2.3,5.6-5.7,5.6-9.2c0-6.9,5.6-11.5,11.3-9.2c5.6,2.3,6.8,20.7,0,26.4
		c-6.8,4.6-30.4,4.6-30.4,4.6"/>
</g>
</svg>
